<mxfile host="app.diagrams.net" agent="Mozilla/5.0 (Windows NT 10.0; Win64; x64) AppleWebKit/537.36 (KHTML, like Gecko) Chrome/135.0.0.0 Safari/537.36 OPR/120.0.0.0" version="28.1.2">
  <diagram name="Página-1" id="LLkcWB9SaSEIWg58hyJ8">
    <mxGraphModel dx="2123" dy="1157" grid="1" gridSize="10" guides="1" tooltips="1" connect="1" arrows="1" fold="1" page="1" pageScale="1" pageWidth="827" pageHeight="1169" math="0" shadow="0">
      <root>
        <mxCell id="0" />
        <mxCell id="1" parent="0" />
        <mxCell id="M1OJQKpELJWNm4TvlvLG-1" value="&#xa;&#xa;Tabela Não Normalizada (TNF)&#xa;&#xa;" style="shape=table;startSize=30;container=1;collapsible=0;childLayout=tableLayout;strokeColor=default;fontSize=16;columnLines=1;miterlimit=7;swimlaneLine=1;shadow=1;" vertex="1" parent="1">
          <mxGeometry x="70" y="40" width="1570" height="180" as="geometry" />
        </mxCell>
        <mxCell id="M1OJQKpELJWNm4TvlvLG-2" value="" style="shape=tableRow;horizontal=0;startSize=0;swimlaneHead=0;swimlaneBody=0;strokeColor=inherit;top=0;left=0;bottom=0;right=0;collapsible=0;dropTarget=0;fillColor=none;points=[[0,0.5],[1,0.5]];portConstraint=eastwest;fontSize=16;miterlimit=7;sketch=1;curveFitting=1;jiggle=2;" vertex="1" parent="M1OJQKpELJWNm4TvlvLG-1">
          <mxGeometry y="30" width="1570" height="40" as="geometry" />
        </mxCell>
        <mxCell id="M1OJQKpELJWNm4TvlvLG-3" value="" style="shape=partialRectangle;html=1;whiteSpace=wrap;connectable=0;strokeColor=inherit;overflow=hidden;fillColor=none;top=0;left=0;bottom=0;right=0;pointerEvents=1;fontSize=16;miterlimit=7;sketch=1;curveFitting=1;jiggle=2;" vertex="1" parent="M1OJQKpELJWNm4TvlvLG-2">
          <mxGeometry width="80" height="40" as="geometry">
            <mxRectangle width="80" height="40" as="alternateBounds" />
          </mxGeometry>
        </mxCell>
        <mxCell id="M1OJQKpELJWNm4TvlvLG-4" value="" style="shape=partialRectangle;html=1;whiteSpace=wrap;connectable=0;strokeColor=inherit;overflow=hidden;fillColor=none;top=0;left=0;bottom=0;right=0;pointerEvents=1;fontSize=16;miterlimit=7;sketch=1;curveFitting=1;jiggle=2;" vertex="1" parent="M1OJQKpELJWNm4TvlvLG-2">
          <mxGeometry x="80" width="170" height="40" as="geometry">
            <mxRectangle width="170" height="40" as="alternateBounds" />
          </mxGeometry>
        </mxCell>
        <mxCell id="M1OJQKpELJWNm4TvlvLG-5" value="" style="shape=partialRectangle;html=1;whiteSpace=wrap;connectable=0;strokeColor=inherit;overflow=hidden;fillColor=none;top=0;left=0;bottom=0;right=0;pointerEvents=1;fontSize=16;miterlimit=7;sketch=1;curveFitting=1;jiggle=2;" vertex="1" parent="M1OJQKpELJWNm4TvlvLG-2">
          <mxGeometry x="250" width="410" height="40" as="geometry">
            <mxRectangle width="410" height="40" as="alternateBounds" />
          </mxGeometry>
        </mxCell>
        <mxCell id="M1OJQKpELJWNm4TvlvLG-6" value="" style="shape=partialRectangle;html=1;whiteSpace=wrap;connectable=0;strokeColor=inherit;overflow=hidden;fillColor=none;top=0;left=0;bottom=0;right=0;pointerEvents=1;fontSize=16;miterlimit=7;sketch=1;curveFitting=1;jiggle=2;" vertex="1" parent="M1OJQKpELJWNm4TvlvLG-2">
          <mxGeometry x="660" width="170" height="40" as="geometry">
            <mxRectangle width="170" height="40" as="alternateBounds" />
          </mxGeometry>
        </mxCell>
        <mxCell id="M1OJQKpELJWNm4TvlvLG-7" value="" style="shape=partialRectangle;html=1;whiteSpace=wrap;connectable=0;strokeColor=inherit;overflow=hidden;fillColor=none;top=0;left=0;bottom=0;right=0;pointerEvents=1;fontSize=16;miterlimit=7;sketch=1;curveFitting=1;jiggle=2;" vertex="1" parent="M1OJQKpELJWNm4TvlvLG-2">
          <mxGeometry x="830" width="100" height="40" as="geometry">
            <mxRectangle width="100" height="40" as="alternateBounds" />
          </mxGeometry>
        </mxCell>
        <mxCell id="M1OJQKpELJWNm4TvlvLG-8" value="" style="shape=partialRectangle;html=1;whiteSpace=wrap;connectable=0;strokeColor=inherit;overflow=hidden;fillColor=none;top=0;left=0;bottom=0;right=0;pointerEvents=1;fontSize=16;miterlimit=7;sketch=1;curveFitting=1;jiggle=2;" vertex="1" parent="M1OJQKpELJWNm4TvlvLG-2">
          <mxGeometry x="930" width="160" height="40" as="geometry">
            <mxRectangle width="160" height="40" as="alternateBounds" />
          </mxGeometry>
        </mxCell>
        <mxCell id="M1OJQKpELJWNm4TvlvLG-9" value="" style="shape=partialRectangle;html=1;whiteSpace=wrap;connectable=0;strokeColor=inherit;overflow=hidden;fillColor=none;top=0;left=0;bottom=0;right=0;pointerEvents=1;fontSize=16;miterlimit=7;sketch=1;curveFitting=1;jiggle=2;" vertex="1" parent="M1OJQKpELJWNm4TvlvLG-2">
          <mxGeometry x="1090" width="130" height="40" as="geometry">
            <mxRectangle width="130" height="40" as="alternateBounds" />
          </mxGeometry>
        </mxCell>
        <mxCell id="M1OJQKpELJWNm4TvlvLG-10" value="" style="shape=partialRectangle;html=1;whiteSpace=wrap;connectable=0;strokeColor=inherit;overflow=hidden;fillColor=none;top=0;left=0;bottom=0;right=0;pointerEvents=1;fontSize=16;miterlimit=7;sketch=1;curveFitting=1;jiggle=2;rowspan=1;colspan=2;" vertex="1" parent="M1OJQKpELJWNm4TvlvLG-2">
          <mxGeometry x="1220" width="350" height="40" as="geometry">
            <mxRectangle width="210" height="40" as="alternateBounds" />
          </mxGeometry>
        </mxCell>
        <mxCell id="M1OJQKpELJWNm4TvlvLG-11" value="" style="shape=partialRectangle;html=1;whiteSpace=wrap;connectable=0;strokeColor=inherit;overflow=hidden;fillColor=none;top=0;left=0;bottom=0;right=0;pointerEvents=1;fontSize=16;miterlimit=7;sketch=1;curveFitting=1;jiggle=2;" vertex="1" visible="0" parent="M1OJQKpELJWNm4TvlvLG-2">
          <mxGeometry x="1430" width="140" height="40" as="geometry">
            <mxRectangle width="140" height="40" as="alternateBounds" />
          </mxGeometry>
        </mxCell>
        <mxCell id="M1OJQKpELJWNm4TvlvLG-12" value="" style="shape=tableRow;horizontal=0;startSize=0;swimlaneHead=0;swimlaneBody=0;strokeColor=inherit;top=0;left=0;bottom=0;right=0;collapsible=0;dropTarget=0;fillColor=none;points=[[0,0.5],[1,0.5]];portConstraint=eastwest;fontSize=16;miterlimit=7;sketch=1;curveFitting=1;jiggle=2;" vertex="1" parent="M1OJQKpELJWNm4TvlvLG-1">
          <mxGeometry y="70" width="1570" height="30" as="geometry" />
        </mxCell>
        <mxCell id="M1OJQKpELJWNm4TvlvLG-13" value="" style="shape=partialRectangle;html=1;whiteSpace=wrap;connectable=0;strokeColor=inherit;overflow=hidden;fillColor=none;top=0;left=0;bottom=0;right=0;pointerEvents=1;fontSize=15;miterlimit=7;sketch=1;curveFitting=1;jiggle=2;" vertex="1" parent="M1OJQKpELJWNm4TvlvLG-12">
          <mxGeometry width="80" height="30" as="geometry">
            <mxRectangle width="80" height="30" as="alternateBounds" />
          </mxGeometry>
        </mxCell>
        <mxCell id="M1OJQKpELJWNm4TvlvLG-14" value="" style="shape=partialRectangle;html=1;whiteSpace=wrap;connectable=0;strokeColor=inherit;overflow=hidden;fillColor=none;top=0;left=0;bottom=0;right=0;pointerEvents=1;fontSize=16;miterlimit=7;sketch=1;curveFitting=1;jiggle=2;" vertex="1" parent="M1OJQKpELJWNm4TvlvLG-12">
          <mxGeometry x="80" width="170" height="30" as="geometry">
            <mxRectangle width="170" height="30" as="alternateBounds" />
          </mxGeometry>
        </mxCell>
        <mxCell id="M1OJQKpELJWNm4TvlvLG-15" value="" style="shape=partialRectangle;html=1;whiteSpace=wrap;connectable=0;strokeColor=inherit;overflow=hidden;fillColor=none;top=0;left=0;bottom=0;right=0;pointerEvents=1;fontSize=16;miterlimit=7;sketch=1;curveFitting=1;jiggle=2;" vertex="1" parent="M1OJQKpELJWNm4TvlvLG-12">
          <mxGeometry x="250" width="410" height="30" as="geometry">
            <mxRectangle width="410" height="30" as="alternateBounds" />
          </mxGeometry>
        </mxCell>
        <mxCell id="M1OJQKpELJWNm4TvlvLG-16" value="" style="shape=partialRectangle;html=1;whiteSpace=wrap;connectable=0;strokeColor=inherit;overflow=hidden;fillColor=none;top=0;left=0;bottom=0;right=0;pointerEvents=1;fontSize=16;miterlimit=7;sketch=1;curveFitting=1;jiggle=2;" vertex="1" parent="M1OJQKpELJWNm4TvlvLG-12">
          <mxGeometry x="660" width="170" height="30" as="geometry">
            <mxRectangle width="170" height="30" as="alternateBounds" />
          </mxGeometry>
        </mxCell>
        <mxCell id="M1OJQKpELJWNm4TvlvLG-17" value="" style="shape=partialRectangle;html=1;whiteSpace=wrap;connectable=0;strokeColor=inherit;overflow=hidden;fillColor=none;top=0;left=0;bottom=0;right=0;pointerEvents=1;fontSize=16;miterlimit=7;sketch=1;curveFitting=1;jiggle=2;" vertex="1" parent="M1OJQKpELJWNm4TvlvLG-12">
          <mxGeometry x="830" width="100" height="30" as="geometry">
            <mxRectangle width="100" height="30" as="alternateBounds" />
          </mxGeometry>
        </mxCell>
        <mxCell id="M1OJQKpELJWNm4TvlvLG-18" value="" style="shape=partialRectangle;html=1;whiteSpace=wrap;connectable=0;strokeColor=inherit;overflow=hidden;fillColor=none;top=0;left=0;bottom=0;right=0;pointerEvents=1;fontSize=16;miterlimit=7;sketch=1;curveFitting=1;jiggle=2;" vertex="1" parent="M1OJQKpELJWNm4TvlvLG-12">
          <mxGeometry x="930" width="160" height="30" as="geometry">
            <mxRectangle width="160" height="30" as="alternateBounds" />
          </mxGeometry>
        </mxCell>
        <mxCell id="M1OJQKpELJWNm4TvlvLG-19" value="" style="shape=partialRectangle;html=1;whiteSpace=wrap;connectable=0;strokeColor=inherit;overflow=hidden;fillColor=none;top=0;left=0;bottom=0;right=0;pointerEvents=1;fontSize=16;miterlimit=7;sketch=1;curveFitting=1;jiggle=2;" vertex="1" parent="M1OJQKpELJWNm4TvlvLG-12">
          <mxGeometry x="1090" width="130" height="30" as="geometry">
            <mxRectangle width="130" height="30" as="alternateBounds" />
          </mxGeometry>
        </mxCell>
        <mxCell id="M1OJQKpELJWNm4TvlvLG-20" value="" style="shape=partialRectangle;html=1;whiteSpace=wrap;connectable=0;strokeColor=inherit;overflow=hidden;fillColor=none;top=0;left=0;bottom=0;right=0;pointerEvents=1;fontSize=16;miterlimit=7;sketch=1;curveFitting=1;jiggle=2;rowspan=1;colspan=2;" vertex="1" parent="M1OJQKpELJWNm4TvlvLG-12">
          <mxGeometry x="1220" width="350" height="30" as="geometry">
            <mxRectangle width="210" height="30" as="alternateBounds" />
          </mxGeometry>
        </mxCell>
        <mxCell id="M1OJQKpELJWNm4TvlvLG-21" value="" style="shape=partialRectangle;html=1;whiteSpace=wrap;connectable=0;strokeColor=inherit;overflow=hidden;fillColor=none;top=0;left=0;bottom=0;right=0;pointerEvents=1;fontSize=16;miterlimit=7;sketch=1;curveFitting=1;jiggle=2;" vertex="1" visible="0" parent="M1OJQKpELJWNm4TvlvLG-12">
          <mxGeometry x="1430" width="140" height="30" as="geometry">
            <mxRectangle width="140" height="30" as="alternateBounds" />
          </mxGeometry>
        </mxCell>
        <mxCell id="M1OJQKpELJWNm4TvlvLG-22" value="" style="shape=tableRow;horizontal=0;startSize=0;swimlaneHead=0;swimlaneBody=0;strokeColor=inherit;top=0;left=0;bottom=0;right=0;collapsible=0;dropTarget=0;fillColor=none;points=[[0,0.5],[1,0.5]];portConstraint=eastwest;fontSize=16;miterlimit=7;sketch=1;curveFitting=1;jiggle=2;" vertex="1" parent="M1OJQKpELJWNm4TvlvLG-1">
          <mxGeometry y="100" width="1570" height="40" as="geometry" />
        </mxCell>
        <mxCell id="M1OJQKpELJWNm4TvlvLG-23" value="&lt;table&gt;&lt;tbody&gt;&lt;tr&gt;&lt;td data-start=&quot;619&quot; data-end=&quot;642&quot; data-col-size=&quot;sm&quot;&gt;&lt;/td&gt;&lt;/tr&gt;&lt;/tbody&gt;&lt;/table&gt;" style="shape=partialRectangle;html=1;whiteSpace=wrap;connectable=0;strokeColor=inherit;overflow=hidden;fillColor=none;top=0;left=0;bottom=0;right=0;pointerEvents=1;fontSize=15;miterlimit=7;sketch=1;curveFitting=1;jiggle=2;" vertex="1" parent="M1OJQKpELJWNm4TvlvLG-22">
          <mxGeometry width="80" height="40" as="geometry">
            <mxRectangle width="80" height="40" as="alternateBounds" />
          </mxGeometry>
        </mxCell>
        <mxCell id="M1OJQKpELJWNm4TvlvLG-24" value="" style="shape=partialRectangle;html=1;whiteSpace=wrap;connectable=0;strokeColor=inherit;overflow=hidden;fillColor=none;top=0;left=0;bottom=0;right=0;pointerEvents=1;fontSize=16;miterlimit=7;sketch=1;curveFitting=1;jiggle=2;" vertex="1" parent="M1OJQKpELJWNm4TvlvLG-22">
          <mxGeometry x="80" width="170" height="40" as="geometry">
            <mxRectangle width="170" height="40" as="alternateBounds" />
          </mxGeometry>
        </mxCell>
        <mxCell id="M1OJQKpELJWNm4TvlvLG-25" value="" style="shape=partialRectangle;html=1;whiteSpace=wrap;connectable=0;strokeColor=inherit;overflow=hidden;fillColor=none;top=0;left=0;bottom=0;right=0;pointerEvents=1;fontSize=16;miterlimit=7;sketch=1;curveFitting=1;jiggle=2;" vertex="1" parent="M1OJQKpELJWNm4TvlvLG-22">
          <mxGeometry x="250" width="410" height="40" as="geometry">
            <mxRectangle width="410" height="40" as="alternateBounds" />
          </mxGeometry>
        </mxCell>
        <mxCell id="M1OJQKpELJWNm4TvlvLG-26" value="" style="shape=partialRectangle;html=1;whiteSpace=wrap;connectable=0;strokeColor=inherit;overflow=hidden;fillColor=none;top=0;left=0;bottom=0;right=0;pointerEvents=1;fontSize=16;miterlimit=7;sketch=1;curveFitting=1;jiggle=2;" vertex="1" parent="M1OJQKpELJWNm4TvlvLG-22">
          <mxGeometry x="660" width="170" height="40" as="geometry">
            <mxRectangle width="170" height="40" as="alternateBounds" />
          </mxGeometry>
        </mxCell>
        <mxCell id="M1OJQKpELJWNm4TvlvLG-27" value="" style="shape=partialRectangle;html=1;whiteSpace=wrap;connectable=0;strokeColor=inherit;overflow=hidden;fillColor=none;top=0;left=0;bottom=0;right=0;pointerEvents=1;fontSize=16;miterlimit=7;sketch=1;curveFitting=1;jiggle=2;" vertex="1" parent="M1OJQKpELJWNm4TvlvLG-22">
          <mxGeometry x="830" width="100" height="40" as="geometry">
            <mxRectangle width="100" height="40" as="alternateBounds" />
          </mxGeometry>
        </mxCell>
        <mxCell id="M1OJQKpELJWNm4TvlvLG-28" value="" style="shape=partialRectangle;html=1;whiteSpace=wrap;connectable=0;strokeColor=inherit;overflow=hidden;fillColor=none;top=0;left=0;bottom=0;right=0;pointerEvents=1;fontSize=16;miterlimit=7;sketch=1;curveFitting=1;jiggle=2;" vertex="1" parent="M1OJQKpELJWNm4TvlvLG-22">
          <mxGeometry x="930" width="160" height="40" as="geometry">
            <mxRectangle width="160" height="40" as="alternateBounds" />
          </mxGeometry>
        </mxCell>
        <mxCell id="M1OJQKpELJWNm4TvlvLG-29" value="" style="shape=partialRectangle;html=1;whiteSpace=wrap;connectable=0;strokeColor=inherit;overflow=hidden;fillColor=none;top=0;left=0;bottom=0;right=0;pointerEvents=1;fontSize=16;miterlimit=7;sketch=1;curveFitting=1;jiggle=2;" vertex="1" parent="M1OJQKpELJWNm4TvlvLG-22">
          <mxGeometry x="1090" width="130" height="40" as="geometry">
            <mxRectangle width="130" height="40" as="alternateBounds" />
          </mxGeometry>
        </mxCell>
        <mxCell id="M1OJQKpELJWNm4TvlvLG-30" value="" style="shape=partialRectangle;html=1;whiteSpace=wrap;connectable=0;strokeColor=inherit;overflow=hidden;fillColor=none;top=0;left=0;bottom=0;right=0;pointerEvents=1;fontSize=16;miterlimit=7;sketch=1;curveFitting=1;jiggle=2;rowspan=1;colspan=2;" vertex="1" parent="M1OJQKpELJWNm4TvlvLG-22">
          <mxGeometry x="1220" width="350" height="40" as="geometry">
            <mxRectangle width="210" height="40" as="alternateBounds" />
          </mxGeometry>
        </mxCell>
        <mxCell id="M1OJQKpELJWNm4TvlvLG-31" value="" style="shape=partialRectangle;html=1;whiteSpace=wrap;connectable=0;strokeColor=inherit;overflow=hidden;fillColor=none;top=0;left=0;bottom=0;right=0;pointerEvents=1;fontSize=16;miterlimit=7;sketch=1;curveFitting=1;jiggle=2;" vertex="1" visible="0" parent="M1OJQKpELJWNm4TvlvLG-22">
          <mxGeometry x="1430" width="140" height="40" as="geometry">
            <mxRectangle width="140" height="40" as="alternateBounds" />
          </mxGeometry>
        </mxCell>
        <mxCell id="M1OJQKpELJWNm4TvlvLG-32" style="shape=tableRow;horizontal=0;startSize=0;swimlaneHead=0;swimlaneBody=0;strokeColor=inherit;top=0;left=0;bottom=0;right=0;collapsible=0;dropTarget=0;fillColor=none;points=[[0,0.5],[1,0.5]];portConstraint=eastwest;fontSize=16;miterlimit=7;sketch=1;curveFitting=1;jiggle=2;" vertex="1" parent="M1OJQKpELJWNm4TvlvLG-1">
          <mxGeometry y="140" width="1570" height="40" as="geometry" />
        </mxCell>
        <mxCell id="M1OJQKpELJWNm4TvlvLG-33" style="shape=partialRectangle;html=1;whiteSpace=wrap;connectable=0;strokeColor=inherit;overflow=hidden;fillColor=none;top=0;left=0;bottom=0;right=0;pointerEvents=1;fontSize=16;miterlimit=7;sketch=1;curveFitting=1;jiggle=2;" vertex="1" parent="M1OJQKpELJWNm4TvlvLG-32">
          <mxGeometry width="80" height="40" as="geometry">
            <mxRectangle width="80" height="40" as="alternateBounds" />
          </mxGeometry>
        </mxCell>
        <mxCell id="M1OJQKpELJWNm4TvlvLG-34" value="" style="shape=partialRectangle;html=1;whiteSpace=wrap;connectable=0;strokeColor=inherit;overflow=hidden;fillColor=none;top=0;left=0;bottom=0;right=0;pointerEvents=1;fontSize=16;miterlimit=7;sketch=1;curveFitting=1;jiggle=2;" vertex="1" parent="M1OJQKpELJWNm4TvlvLG-32">
          <mxGeometry x="80" width="170" height="40" as="geometry">
            <mxRectangle width="170" height="40" as="alternateBounds" />
          </mxGeometry>
        </mxCell>
        <mxCell id="M1OJQKpELJWNm4TvlvLG-35" value="" style="shape=partialRectangle;html=1;whiteSpace=wrap;connectable=0;strokeColor=inherit;overflow=hidden;fillColor=none;top=0;left=0;bottom=0;right=0;pointerEvents=1;fontSize=16;miterlimit=7;sketch=1;curveFitting=1;jiggle=2;" vertex="1" parent="M1OJQKpELJWNm4TvlvLG-32">
          <mxGeometry x="250" width="410" height="40" as="geometry">
            <mxRectangle width="410" height="40" as="alternateBounds" />
          </mxGeometry>
        </mxCell>
        <mxCell id="M1OJQKpELJWNm4TvlvLG-36" value="" style="shape=partialRectangle;html=1;whiteSpace=wrap;connectable=0;strokeColor=inherit;overflow=hidden;fillColor=none;top=0;left=0;bottom=0;right=0;pointerEvents=1;fontSize=16;miterlimit=7;sketch=1;curveFitting=1;jiggle=2;" vertex="1" parent="M1OJQKpELJWNm4TvlvLG-32">
          <mxGeometry x="660" width="170" height="40" as="geometry">
            <mxRectangle width="170" height="40" as="alternateBounds" />
          </mxGeometry>
        </mxCell>
        <mxCell id="M1OJQKpELJWNm4TvlvLG-37" value="" style="shape=partialRectangle;html=1;whiteSpace=wrap;connectable=0;strokeColor=inherit;overflow=hidden;fillColor=none;top=0;left=0;bottom=0;right=0;pointerEvents=1;fontSize=16;miterlimit=7;sketch=1;curveFitting=1;jiggle=2;" vertex="1" parent="M1OJQKpELJWNm4TvlvLG-32">
          <mxGeometry x="830" width="100" height="40" as="geometry">
            <mxRectangle width="100" height="40" as="alternateBounds" />
          </mxGeometry>
        </mxCell>
        <mxCell id="M1OJQKpELJWNm4TvlvLG-38" value="" style="shape=partialRectangle;html=1;whiteSpace=wrap;connectable=0;strokeColor=inherit;overflow=hidden;fillColor=none;top=0;left=0;bottom=0;right=0;pointerEvents=1;fontSize=16;miterlimit=7;sketch=1;curveFitting=1;jiggle=2;" vertex="1" parent="M1OJQKpELJWNm4TvlvLG-32">
          <mxGeometry x="930" width="160" height="40" as="geometry">
            <mxRectangle width="160" height="40" as="alternateBounds" />
          </mxGeometry>
        </mxCell>
        <mxCell id="M1OJQKpELJWNm4TvlvLG-39" value="" style="shape=partialRectangle;html=1;whiteSpace=wrap;connectable=0;strokeColor=inherit;overflow=hidden;fillColor=none;top=0;left=0;bottom=0;right=0;pointerEvents=1;fontSize=16;miterlimit=7;sketch=1;curveFitting=1;jiggle=2;" vertex="1" parent="M1OJQKpELJWNm4TvlvLG-32">
          <mxGeometry x="1090" width="130" height="40" as="geometry">
            <mxRectangle width="130" height="40" as="alternateBounds" />
          </mxGeometry>
        </mxCell>
        <mxCell id="M1OJQKpELJWNm4TvlvLG-40" value="" style="shape=partialRectangle;html=1;whiteSpace=wrap;connectable=0;strokeColor=inherit;overflow=hidden;fillColor=none;top=0;left=0;bottom=0;right=0;pointerEvents=1;fontSize=16;miterlimit=7;sketch=1;curveFitting=1;jiggle=2;rowspan=1;colspan=2;" vertex="1" parent="M1OJQKpELJWNm4TvlvLG-32">
          <mxGeometry x="1220" width="350" height="40" as="geometry">
            <mxRectangle width="210" height="40" as="alternateBounds" />
          </mxGeometry>
        </mxCell>
        <mxCell id="M1OJQKpELJWNm4TvlvLG-41" value="" style="shape=partialRectangle;html=1;whiteSpace=wrap;connectable=0;strokeColor=inherit;overflow=hidden;fillColor=none;top=0;left=0;bottom=0;right=0;pointerEvents=1;fontSize=16;miterlimit=7;sketch=1;curveFitting=1;jiggle=2;" vertex="1" visible="0" parent="M1OJQKpELJWNm4TvlvLG-32">
          <mxGeometry x="1430" width="140" height="40" as="geometry">
            <mxRectangle width="140" height="40" as="alternateBounds" />
          </mxGeometry>
        </mxCell>
        <mxCell id="M1OJQKpELJWNm4TvlvLG-62" value="&#xa;&#xa;Tabela Não Normalizada (TNF)&#xa;&#xa;" style="shape=table;startSize=30;container=1;collapsible=0;childLayout=tableLayout;strokeColor=default;fontSize=16;columnLines=1;miterlimit=7;swimlaneLine=1;shadow=1;" vertex="1" parent="1">
          <mxGeometry x="70" y="270" width="1120" height="240" as="geometry" />
        </mxCell>
        <mxCell id="M1OJQKpELJWNm4TvlvLG-63" style="shape=tableRow;horizontal=0;startSize=0;swimlaneHead=0;swimlaneBody=0;strokeColor=inherit;top=0;left=0;bottom=0;right=0;collapsible=0;dropTarget=0;fillColor=none;points=[[0,0.5],[1,0.5]];portConstraint=eastwest;fontSize=16;miterlimit=7;sketch=1;curveFitting=1;jiggle=2;" vertex="1" parent="M1OJQKpELJWNm4TvlvLG-62">
          <mxGeometry y="30" width="1120" height="40" as="geometry" />
        </mxCell>
        <mxCell id="M1OJQKpELJWNm4TvlvLG-64" value="" style="shape=partialRectangle;html=1;whiteSpace=wrap;connectable=0;strokeColor=inherit;overflow=hidden;fillColor=none;top=0;left=0;bottom=0;right=0;pointerEvents=1;fontSize=16;miterlimit=7;sketch=1;curveFitting=1;jiggle=2;" vertex="1" parent="M1OJQKpELJWNm4TvlvLG-63">
          <mxGeometry width="90" height="40" as="geometry">
            <mxRectangle width="90" height="40" as="alternateBounds" />
          </mxGeometry>
        </mxCell>
        <mxCell id="M1OJQKpELJWNm4TvlvLG-65" value="" style="shape=partialRectangle;html=1;whiteSpace=wrap;connectable=0;strokeColor=inherit;overflow=hidden;fillColor=none;top=0;left=0;bottom=0;right=0;pointerEvents=1;fontSize=16;miterlimit=7;sketch=1;curveFitting=1;jiggle=2;" vertex="1" parent="M1OJQKpELJWNm4TvlvLG-63">
          <mxGeometry x="90" width="170" height="40" as="geometry">
            <mxRectangle width="170" height="40" as="alternateBounds" />
          </mxGeometry>
        </mxCell>
        <mxCell id="M1OJQKpELJWNm4TvlvLG-66" style="shape=partialRectangle;html=1;whiteSpace=wrap;connectable=0;strokeColor=inherit;overflow=hidden;fillColor=none;top=0;left=0;bottom=0;right=0;pointerEvents=1;fontSize=16;miterlimit=7;sketch=1;curveFitting=1;jiggle=2;" vertex="1" parent="M1OJQKpELJWNm4TvlvLG-63">
          <mxGeometry x="260" width="170" height="40" as="geometry">
            <mxRectangle width="170" height="40" as="alternateBounds" />
          </mxGeometry>
        </mxCell>
        <mxCell id="M1OJQKpELJWNm4TvlvLG-67" style="shape=partialRectangle;html=1;whiteSpace=wrap;connectable=0;strokeColor=inherit;overflow=hidden;fillColor=none;top=0;left=0;bottom=0;right=0;pointerEvents=1;fontSize=16;miterlimit=7;sketch=1;curveFitting=1;jiggle=2;" vertex="1" parent="M1OJQKpELJWNm4TvlvLG-63">
          <mxGeometry x="430" width="160" height="40" as="geometry">
            <mxRectangle width="160" height="40" as="alternateBounds" />
          </mxGeometry>
        </mxCell>
        <mxCell id="M1OJQKpELJWNm4TvlvLG-68" style="shape=partialRectangle;html=1;whiteSpace=wrap;connectable=0;strokeColor=inherit;overflow=hidden;fillColor=none;top=0;left=0;bottom=0;right=0;pointerEvents=1;fontSize=16;miterlimit=7;sketch=1;curveFitting=1;jiggle=2;" vertex="1" parent="M1OJQKpELJWNm4TvlvLG-63">
          <mxGeometry x="590" width="110" height="40" as="geometry">
            <mxRectangle width="110" height="40" as="alternateBounds" />
          </mxGeometry>
        </mxCell>
        <mxCell id="M1OJQKpELJWNm4TvlvLG-69" style="shape=partialRectangle;html=1;whiteSpace=wrap;connectable=0;strokeColor=inherit;overflow=hidden;fillColor=none;top=0;left=0;bottom=0;right=0;pointerEvents=1;fontSize=16;miterlimit=7;sketch=1;curveFitting=1;jiggle=2;" vertex="1" parent="M1OJQKpELJWNm4TvlvLG-63">
          <mxGeometry x="700" width="150" height="40" as="geometry">
            <mxRectangle width="150" height="40" as="alternateBounds" />
          </mxGeometry>
        </mxCell>
        <mxCell id="M1OJQKpELJWNm4TvlvLG-595" style="shape=partialRectangle;html=1;whiteSpace=wrap;connectable=0;strokeColor=inherit;overflow=hidden;fillColor=none;top=0;left=0;bottom=0;right=0;pointerEvents=1;fontSize=16;miterlimit=7;sketch=1;curveFitting=1;jiggle=2;" vertex="1" parent="M1OJQKpELJWNm4TvlvLG-63">
          <mxGeometry x="850" width="80" height="40" as="geometry">
            <mxRectangle width="80" height="40" as="alternateBounds" />
          </mxGeometry>
        </mxCell>
        <mxCell id="M1OJQKpELJWNm4TvlvLG-599" style="shape=partialRectangle;html=1;whiteSpace=wrap;connectable=0;strokeColor=inherit;overflow=hidden;fillColor=none;top=0;left=0;bottom=0;right=0;pointerEvents=1;fontSize=16;miterlimit=7;sketch=1;curveFitting=1;jiggle=2;" vertex="1" parent="M1OJQKpELJWNm4TvlvLG-63">
          <mxGeometry x="930" width="190" height="40" as="geometry">
            <mxRectangle width="190" height="40" as="alternateBounds" />
          </mxGeometry>
        </mxCell>
        <mxCell id="M1OJQKpELJWNm4TvlvLG-70" value="" style="shape=tableRow;horizontal=0;startSize=0;swimlaneHead=0;swimlaneBody=0;strokeColor=inherit;top=0;left=0;bottom=0;right=0;collapsible=0;dropTarget=0;fillColor=none;points=[[0,0.5],[1,0.5]];portConstraint=eastwest;fontSize=16;miterlimit=7;sketch=1;curveFitting=1;jiggle=2;" vertex="1" parent="M1OJQKpELJWNm4TvlvLG-62">
          <mxGeometry y="70" width="1120" height="40" as="geometry" />
        </mxCell>
        <mxCell id="M1OJQKpELJWNm4TvlvLG-71" value="" style="shape=partialRectangle;html=1;whiteSpace=wrap;connectable=0;strokeColor=inherit;overflow=hidden;fillColor=none;top=0;left=0;bottom=0;right=0;pointerEvents=1;fontSize=16;miterlimit=7;sketch=1;curveFitting=1;jiggle=2;" vertex="1" parent="M1OJQKpELJWNm4TvlvLG-70">
          <mxGeometry width="90" height="40" as="geometry">
            <mxRectangle width="90" height="40" as="alternateBounds" />
          </mxGeometry>
        </mxCell>
        <mxCell id="M1OJQKpELJWNm4TvlvLG-72" value="" style="shape=partialRectangle;html=1;whiteSpace=wrap;connectable=0;strokeColor=inherit;overflow=hidden;fillColor=none;top=0;left=0;bottom=0;right=0;pointerEvents=1;fontSize=16;miterlimit=7;sketch=1;curveFitting=1;jiggle=2;" vertex="1" parent="M1OJQKpELJWNm4TvlvLG-70">
          <mxGeometry x="90" width="170" height="40" as="geometry">
            <mxRectangle width="170" height="40" as="alternateBounds" />
          </mxGeometry>
        </mxCell>
        <mxCell id="M1OJQKpELJWNm4TvlvLG-73" value="" style="shape=partialRectangle;html=1;whiteSpace=wrap;connectable=0;strokeColor=inherit;overflow=hidden;fillColor=none;top=0;left=0;bottom=0;right=0;pointerEvents=1;fontSize=16;miterlimit=7;sketch=1;curveFitting=1;jiggle=2;" vertex="1" parent="M1OJQKpELJWNm4TvlvLG-70">
          <mxGeometry x="260" width="170" height="40" as="geometry">
            <mxRectangle width="170" height="40" as="alternateBounds" />
          </mxGeometry>
        </mxCell>
        <mxCell id="M1OJQKpELJWNm4TvlvLG-74" value="" style="shape=partialRectangle;html=1;whiteSpace=wrap;connectable=0;strokeColor=inherit;overflow=hidden;fillColor=none;top=0;left=0;bottom=0;right=0;pointerEvents=1;fontSize=16;miterlimit=7;sketch=1;curveFitting=1;jiggle=2;" vertex="1" parent="M1OJQKpELJWNm4TvlvLG-70">
          <mxGeometry x="430" width="160" height="40" as="geometry">
            <mxRectangle width="160" height="40" as="alternateBounds" />
          </mxGeometry>
        </mxCell>
        <mxCell id="M1OJQKpELJWNm4TvlvLG-75" value="" style="shape=partialRectangle;html=1;whiteSpace=wrap;connectable=0;strokeColor=inherit;overflow=hidden;fillColor=none;top=0;left=0;bottom=0;right=0;pointerEvents=1;fontSize=16;miterlimit=7;sketch=1;curveFitting=1;jiggle=2;" vertex="1" parent="M1OJQKpELJWNm4TvlvLG-70">
          <mxGeometry x="590" width="110" height="40" as="geometry">
            <mxRectangle width="110" height="40" as="alternateBounds" />
          </mxGeometry>
        </mxCell>
        <mxCell id="M1OJQKpELJWNm4TvlvLG-76" value="" style="shape=partialRectangle;html=1;whiteSpace=wrap;connectable=0;strokeColor=inherit;overflow=hidden;fillColor=none;top=0;left=0;bottom=0;right=0;pointerEvents=1;fontSize=16;miterlimit=7;sketch=1;curveFitting=1;jiggle=2;" vertex="1" parent="M1OJQKpELJWNm4TvlvLG-70">
          <mxGeometry x="700" width="150" height="40" as="geometry">
            <mxRectangle width="150" height="40" as="alternateBounds" />
          </mxGeometry>
        </mxCell>
        <mxCell id="M1OJQKpELJWNm4TvlvLG-596" style="shape=partialRectangle;html=1;whiteSpace=wrap;connectable=0;strokeColor=inherit;overflow=hidden;fillColor=none;top=0;left=0;bottom=0;right=0;pointerEvents=1;fontSize=16;miterlimit=7;sketch=1;curveFitting=1;jiggle=2;" vertex="1" parent="M1OJQKpELJWNm4TvlvLG-70">
          <mxGeometry x="850" width="80" height="40" as="geometry">
            <mxRectangle width="80" height="40" as="alternateBounds" />
          </mxGeometry>
        </mxCell>
        <mxCell id="M1OJQKpELJWNm4TvlvLG-600" style="shape=partialRectangle;html=1;whiteSpace=wrap;connectable=0;strokeColor=inherit;overflow=hidden;fillColor=none;top=0;left=0;bottom=0;right=0;pointerEvents=1;fontSize=16;miterlimit=7;sketch=1;curveFitting=1;jiggle=2;" vertex="1" parent="M1OJQKpELJWNm4TvlvLG-70">
          <mxGeometry x="930" width="190" height="40" as="geometry">
            <mxRectangle width="190" height="40" as="alternateBounds" />
          </mxGeometry>
        </mxCell>
        <mxCell id="M1OJQKpELJWNm4TvlvLG-77" value="" style="shape=tableRow;horizontal=0;startSize=0;swimlaneHead=0;swimlaneBody=0;strokeColor=inherit;top=0;left=0;bottom=0;right=0;collapsible=0;dropTarget=0;fillColor=none;points=[[0,0.5],[1,0.5]];portConstraint=eastwest;fontSize=16;miterlimit=7;sketch=1;curveFitting=1;jiggle=2;" vertex="1" parent="M1OJQKpELJWNm4TvlvLG-62">
          <mxGeometry y="110" width="1120" height="70" as="geometry" />
        </mxCell>
        <mxCell id="M1OJQKpELJWNm4TvlvLG-78" value="" style="shape=partialRectangle;html=1;whiteSpace=wrap;connectable=0;strokeColor=inherit;overflow=hidden;fillColor=none;top=0;left=0;bottom=0;right=0;pointerEvents=1;fontSize=15;miterlimit=7;sketch=1;curveFitting=1;jiggle=2;" vertex="1" parent="M1OJQKpELJWNm4TvlvLG-77">
          <mxGeometry width="90" height="70" as="geometry">
            <mxRectangle width="90" height="70" as="alternateBounds" />
          </mxGeometry>
        </mxCell>
        <mxCell id="M1OJQKpELJWNm4TvlvLG-79" value="" style="shape=partialRectangle;html=1;whiteSpace=wrap;connectable=0;strokeColor=inherit;overflow=hidden;fillColor=none;top=0;left=0;bottom=0;right=0;pointerEvents=1;fontSize=16;miterlimit=7;sketch=1;curveFitting=1;jiggle=2;" vertex="1" parent="M1OJQKpELJWNm4TvlvLG-77">
          <mxGeometry x="90" width="170" height="70" as="geometry">
            <mxRectangle width="170" height="70" as="alternateBounds" />
          </mxGeometry>
        </mxCell>
        <mxCell id="M1OJQKpELJWNm4TvlvLG-80" value="" style="shape=partialRectangle;html=1;whiteSpace=wrap;connectable=0;strokeColor=inherit;overflow=hidden;fillColor=none;top=0;left=0;bottom=0;right=0;pointerEvents=1;fontSize=16;miterlimit=7;sketch=1;curveFitting=1;jiggle=2;" vertex="1" parent="M1OJQKpELJWNm4TvlvLG-77">
          <mxGeometry x="260" width="170" height="70" as="geometry">
            <mxRectangle width="170" height="70" as="alternateBounds" />
          </mxGeometry>
        </mxCell>
        <mxCell id="M1OJQKpELJWNm4TvlvLG-81" value="" style="shape=partialRectangle;html=1;whiteSpace=wrap;connectable=0;strokeColor=inherit;overflow=hidden;fillColor=none;top=0;left=0;bottom=0;right=0;pointerEvents=1;fontSize=16;miterlimit=7;sketch=1;curveFitting=1;jiggle=2;" vertex="1" parent="M1OJQKpELJWNm4TvlvLG-77">
          <mxGeometry x="430" width="160" height="70" as="geometry">
            <mxRectangle width="160" height="70" as="alternateBounds" />
          </mxGeometry>
        </mxCell>
        <mxCell id="M1OJQKpELJWNm4TvlvLG-82" value="" style="shape=partialRectangle;html=1;whiteSpace=wrap;connectable=0;strokeColor=inherit;overflow=hidden;fillColor=none;top=0;left=0;bottom=0;right=0;pointerEvents=1;fontSize=16;miterlimit=7;sketch=1;curveFitting=1;jiggle=2;" vertex="1" parent="M1OJQKpELJWNm4TvlvLG-77">
          <mxGeometry x="590" width="110" height="70" as="geometry">
            <mxRectangle width="110" height="70" as="alternateBounds" />
          </mxGeometry>
        </mxCell>
        <mxCell id="M1OJQKpELJWNm4TvlvLG-83" value="" style="shape=partialRectangle;html=1;whiteSpace=wrap;connectable=0;strokeColor=inherit;overflow=hidden;fillColor=none;top=0;left=0;bottom=0;right=0;pointerEvents=1;fontSize=16;miterlimit=7;sketch=1;curveFitting=1;jiggle=2;container=1;" vertex="1" parent="M1OJQKpELJWNm4TvlvLG-77">
          <mxGeometry x="700" width="150" height="70" as="geometry">
            <mxRectangle width="150" height="70" as="alternateBounds" />
          </mxGeometry>
        </mxCell>
        <mxCell id="M1OJQKpELJWNm4TvlvLG-597" style="shape=partialRectangle;html=1;whiteSpace=wrap;connectable=0;strokeColor=inherit;overflow=hidden;fillColor=none;top=0;left=0;bottom=0;right=0;pointerEvents=1;fontSize=16;miterlimit=7;sketch=1;curveFitting=1;jiggle=2;container=1;" vertex="1" parent="M1OJQKpELJWNm4TvlvLG-77">
          <mxGeometry x="850" width="80" height="70" as="geometry">
            <mxRectangle width="80" height="70" as="alternateBounds" />
          </mxGeometry>
        </mxCell>
        <mxCell id="M1OJQKpELJWNm4TvlvLG-601" style="shape=partialRectangle;html=1;whiteSpace=wrap;connectable=0;strokeColor=inherit;overflow=hidden;fillColor=none;top=0;left=0;bottom=0;right=0;pointerEvents=1;fontSize=16;miterlimit=7;sketch=1;curveFitting=1;jiggle=2;container=1;" vertex="1" parent="M1OJQKpELJWNm4TvlvLG-77">
          <mxGeometry x="930" width="190" height="70" as="geometry">
            <mxRectangle width="190" height="70" as="alternateBounds" />
          </mxGeometry>
        </mxCell>
        <mxCell id="M1OJQKpELJWNm4TvlvLG-84" style="shape=tableRow;horizontal=0;startSize=0;swimlaneHead=0;swimlaneBody=0;strokeColor=inherit;top=0;left=0;bottom=0;right=0;collapsible=0;dropTarget=0;fillColor=none;points=[[0,0.5],[1,0.5]];portConstraint=eastwest;fontSize=16;miterlimit=7;sketch=1;curveFitting=1;jiggle=2;" vertex="1" parent="M1OJQKpELJWNm4TvlvLG-62">
          <mxGeometry y="180" width="1120" height="60" as="geometry" />
        </mxCell>
        <mxCell id="M1OJQKpELJWNm4TvlvLG-85" value="" style="shape=partialRectangle;html=1;whiteSpace=wrap;connectable=0;strokeColor=inherit;overflow=hidden;fillColor=none;top=0;left=0;bottom=0;right=0;pointerEvents=1;fontSize=15;miterlimit=7;sketch=1;curveFitting=1;jiggle=2;" vertex="1" parent="M1OJQKpELJWNm4TvlvLG-84">
          <mxGeometry width="90" height="60" as="geometry">
            <mxRectangle width="90" height="60" as="alternateBounds" />
          </mxGeometry>
        </mxCell>
        <mxCell id="M1OJQKpELJWNm4TvlvLG-86" value="" style="shape=partialRectangle;html=1;whiteSpace=wrap;connectable=0;strokeColor=inherit;overflow=hidden;fillColor=none;top=0;left=0;bottom=0;right=0;pointerEvents=1;fontSize=16;miterlimit=7;sketch=1;curveFitting=1;jiggle=2;" vertex="1" parent="M1OJQKpELJWNm4TvlvLG-84">
          <mxGeometry x="90" width="170" height="60" as="geometry">
            <mxRectangle width="170" height="60" as="alternateBounds" />
          </mxGeometry>
        </mxCell>
        <mxCell id="M1OJQKpELJWNm4TvlvLG-87" value="" style="shape=partialRectangle;html=1;whiteSpace=wrap;connectable=0;strokeColor=inherit;overflow=hidden;fillColor=none;top=0;left=0;bottom=0;right=0;pointerEvents=1;fontSize=16;miterlimit=7;sketch=1;curveFitting=1;jiggle=2;" vertex="1" parent="M1OJQKpELJWNm4TvlvLG-84">
          <mxGeometry x="260" width="170" height="60" as="geometry">
            <mxRectangle width="170" height="60" as="alternateBounds" />
          </mxGeometry>
        </mxCell>
        <mxCell id="M1OJQKpELJWNm4TvlvLG-88" value="" style="shape=partialRectangle;html=1;whiteSpace=wrap;connectable=0;strokeColor=inherit;overflow=hidden;fillColor=none;top=0;left=0;bottom=0;right=0;pointerEvents=1;fontSize=16;miterlimit=7;sketch=1;curveFitting=1;jiggle=2;" vertex="1" parent="M1OJQKpELJWNm4TvlvLG-84">
          <mxGeometry x="430" width="160" height="60" as="geometry">
            <mxRectangle width="160" height="60" as="alternateBounds" />
          </mxGeometry>
        </mxCell>
        <mxCell id="M1OJQKpELJWNm4TvlvLG-89" value="" style="shape=partialRectangle;html=1;whiteSpace=wrap;connectable=0;strokeColor=inherit;overflow=hidden;fillColor=none;top=0;left=0;bottom=0;right=0;pointerEvents=1;fontSize=16;miterlimit=7;sketch=1;curveFitting=1;jiggle=2;" vertex="1" parent="M1OJQKpELJWNm4TvlvLG-84">
          <mxGeometry x="590" width="110" height="60" as="geometry">
            <mxRectangle width="110" height="60" as="alternateBounds" />
          </mxGeometry>
        </mxCell>
        <mxCell id="M1OJQKpELJWNm4TvlvLG-90" value="" style="shape=partialRectangle;html=1;whiteSpace=wrap;connectable=0;strokeColor=inherit;overflow=hidden;fillColor=none;top=0;left=0;bottom=0;right=0;pointerEvents=1;fontSize=16;miterlimit=7;sketch=1;curveFitting=1;jiggle=2;" vertex="1" parent="M1OJQKpELJWNm4TvlvLG-84">
          <mxGeometry x="700" width="150" height="60" as="geometry">
            <mxRectangle width="150" height="60" as="alternateBounds" />
          </mxGeometry>
        </mxCell>
        <mxCell id="M1OJQKpELJWNm4TvlvLG-598" style="shape=partialRectangle;html=1;whiteSpace=wrap;connectable=0;strokeColor=inherit;overflow=hidden;fillColor=none;top=0;left=0;bottom=0;right=0;pointerEvents=1;fontSize=16;miterlimit=7;sketch=1;curveFitting=1;jiggle=2;" vertex="1" parent="M1OJQKpELJWNm4TvlvLG-84">
          <mxGeometry x="850" width="80" height="60" as="geometry">
            <mxRectangle width="80" height="60" as="alternateBounds" />
          </mxGeometry>
        </mxCell>
        <mxCell id="M1OJQKpELJWNm4TvlvLG-602" style="shape=partialRectangle;html=1;whiteSpace=wrap;connectable=0;strokeColor=inherit;overflow=hidden;fillColor=none;top=0;left=0;bottom=0;right=0;pointerEvents=1;fontSize=16;miterlimit=7;sketch=1;curveFitting=1;jiggle=2;" vertex="1" parent="M1OJQKpELJWNm4TvlvLG-84">
          <mxGeometry x="930" width="190" height="60" as="geometry">
            <mxRectangle width="190" height="60" as="alternateBounds" />
          </mxGeometry>
        </mxCell>
        <mxCell id="M1OJQKpELJWNm4TvlvLG-294" value="" style="shape=partialRectangle;html=1;whiteSpace=wrap;connectable=0;strokeColor=inherit;overflow=hidden;fillColor=none;top=0;left=0;bottom=0;right=0;pointerEvents=1;fontSize=16;miterlimit=7;sketch=1;curveFitting=1;jiggle=2;" vertex="1" parent="1">
          <mxGeometry x="1474" y="830" width="170" height="50" as="geometry">
            <mxRectangle width="170" height="50" as="alternateBounds" />
          </mxGeometry>
        </mxCell>
        <mxCell id="M1OJQKpELJWNm4TvlvLG-298" value="" style="shape=partialRectangle;html=1;whiteSpace=wrap;connectable=0;strokeColor=inherit;overflow=hidden;fillColor=none;top=0;left=0;bottom=0;right=0;pointerEvents=1;fontSize=16;miterlimit=7;sketch=1;curveFitting=1;jiggle=2;" vertex="1" parent="1">
          <mxGeometry x="224" y="1080" width="170" height="50" as="geometry">
            <mxRectangle width="170" height="50" as="alternateBounds" />
          </mxGeometry>
        </mxCell>
        <mxCell id="M1OJQKpELJWNm4TvlvLG-593" value="&lt;table data-start=&quot;327&quot; data-end=&quot;1062&quot; class=&quot;w-fit min-w-(--thread-content-width)&quot;&gt;&lt;thead data-start=&quot;327&quot; data-end=&quot;472&quot;&gt;&lt;tr data-start=&quot;327&quot; data-end=&quot;472&quot;&gt;&lt;th data-start=&quot;327&quot; data-end=&quot;336&quot; data-col-size=&quot;sm&quot;&gt;&lt;font style=&quot;font-size: 17px;&quot;&gt;CODIGO&lt;/font&gt;&lt;/th&gt;&lt;th data-start=&quot;336&quot; data-end=&quot;353&quot; data-col-size=&quot;sm&quot;&gt;&lt;font style=&quot;font-size: 17px;&quot;&gt;TIPO&lt;/font&gt;&lt;/th&gt;&lt;th data-start=&quot;353&quot; data-end=&quot;396&quot; data-col-size=&quot;md&quot;&gt;&lt;font style=&quot;font-size: 17px;&quot;&gt;DESCRICAO&lt;/font&gt;&lt;/th&gt;&lt;th data-start=&quot;396&quot; data-end=&quot;412&quot; data-col-size=&quot;sm&quot;&gt;&lt;font style=&quot;font-size: 17px;&quot;&gt;COD_EMPREGADO&lt;/font&gt;&lt;/th&gt;&lt;th data-start=&quot;412&quot; data-end=&quot;424&quot; data-col-size=&quot;sm&quot;&gt;&lt;font style=&quot;font-size: 17px;&quot;&gt;NOME_EMP&lt;/font&gt;&lt;/th&gt;&lt;th data-start=&quot;424&quot; data-end=&quot;442&quot; data-col-size=&quot;sm&quot;&gt;&lt;font style=&quot;font-size: 17px;&quot;&gt;CAT_EMPREGADO&lt;/font&gt;&lt;/th&gt;&lt;th data-start=&quot;442&quot; data-end=&quot;452&quot; data-col-size=&quot;sm&quot;&gt;&lt;font style=&quot;font-size: 17px;&quot;&gt;SALARIO&lt;/font&gt;&lt;/th&gt;&lt;th data-start=&quot;452&quot; data-end=&quot;472&quot; data-col-size=&quot;sm&quot;&gt;&lt;font style=&quot;font-size: 17px;&quot;&gt;DATA_CONTRATACAO&lt;/font&gt;&lt;/th&gt;&lt;/tr&gt;&lt;/thead&gt;&lt;tbody data-start=&quot;619&quot; data-end=&quot;1062&quot;&gt;&lt;tr data-start=&quot;619&quot; data-end=&quot;764&quot;&gt;&lt;td data-start=&quot;619&quot; data-end=&quot;628&quot; data-col-size=&quot;sm&quot;&gt;&lt;font style=&quot;font-size: 17px;&quot;&gt;001&lt;/font&gt;&lt;/td&gt;&lt;td data-start=&quot;628&quot; data-end=&quot;645&quot; data-col-size=&quot;sm&quot;&gt;&lt;font style=&quot;font-size: 17px;&quot;&gt;PESQUISA&lt;/font&gt;&lt;/td&gt;&lt;td data-start=&quot;645&quot; data-end=&quot;688&quot; data-col-size=&quot;md&quot;&gt;&lt;font style=&quot;font-size: 17px;&quot;&gt;LEVANTAMENTO DE REQUISITOS&lt;/font&gt;&lt;/td&gt;&lt;td data-start=&quot;688&quot; data-end=&quot;704&quot; data-col-size=&quot;sm&quot;&gt;&lt;font style=&quot;font-size: 17px;&quot;&gt;1002&lt;/font&gt;&lt;/td&gt;&lt;td data-start=&quot;704&quot; data-end=&quot;716&quot; data-col-size=&quot;sm&quot;&gt;&lt;font style=&quot;font-size: 17px;&quot;&gt;FULANO&lt;/font&gt;&lt;/td&gt;&lt;td data-start=&quot;716&quot; data-end=&quot;734&quot; data-col-size=&quot;sm&quot;&gt;&lt;font style=&quot;font-size: 17px;&quot;&gt;ANALISTA JÚNIOR&lt;/font&gt;&lt;/td&gt;&lt;td data-start=&quot;734&quot; data-end=&quot;744&quot; data-col-size=&quot;sm&quot;&gt;&lt;font style=&quot;font-size: 17px;&quot;&gt;3500&lt;/font&gt;&lt;/td&gt;&lt;td data-start=&quot;744&quot; data-end=&quot;764&quot; data-col-size=&quot;sm&quot;&gt;&lt;font style=&quot;font-size: 17px;&quot;&gt;01/02/2018&lt;/font&gt;&lt;/td&gt;&lt;/tr&gt;&lt;tr data-start=&quot;765&quot; data-end=&quot;916&quot;&gt;&lt;td data-start=&quot;765&quot; data-end=&quot;774&quot; data-col-size=&quot;sm&quot;&gt;&lt;font style=&quot;font-size: 17px;&quot;&gt;002&lt;/font&gt;&lt;/td&gt;&lt;td data-start=&quot;774&quot; data-end=&quot;791&quot; data-col-size=&quot;sm&quot;&gt;&lt;font style=&quot;font-size: 17px;&quot;&gt;DESENVOLVIMENTO&lt;/font&gt;&lt;/td&gt;&lt;td data-start=&quot;791&quot; data-end=&quot;838&quot; data-col-size=&quot;md&quot;&gt;&lt;font style=&quot;font-size: 17px;&quot;&gt;DESENVOLVIMENTO DE APP PARA ATUAÇÃO EM CAMPO&lt;/font&gt;&lt;/td&gt;&lt;td data-start=&quot;838&quot; data-end=&quot;854&quot; data-col-size=&quot;sm&quot;&gt;&lt;font style=&quot;font-size: 17px;&quot;&gt;2156&lt;/font&gt;&lt;/td&gt;&lt;td data-start=&quot;854&quot; data-end=&quot;866&quot; data-col-size=&quot;sm&quot;&gt;&lt;font style=&quot;font-size: 17px;&quot;&gt;CICLANO&lt;/font&gt;&lt;/td&gt;&lt;td data-start=&quot;866&quot; data-end=&quot;889&quot; data-col-size=&quot;sm&quot;&gt;&lt;font style=&quot;font-size: 17px;&quot;&gt;&lt;br&gt;DESENVOLVEDOR JÚNIOR&lt;/font&gt;&lt;/td&gt;&lt;td data-start=&quot;889&quot; data-end=&quot;896&quot; data-col-size=&quot;sm&quot;&gt;&lt;font style=&quot;font-size: 17px;&quot;&gt;3750&lt;/font&gt;&lt;/td&gt;&lt;td data-start=&quot;896&quot; data-end=&quot;916&quot; data-col-size=&quot;sm&quot;&gt;&lt;font style=&quot;font-size: 17px;&quot;&gt;01/03/2018&lt;/font&gt;&lt;/td&gt;&lt;/tr&gt;&lt;tr data-start=&quot;917&quot; data-end=&quot;1062&quot;&gt;&lt;td data-start=&quot;917&quot; data-end=&quot;926&quot; data-col-size=&quot;sm&quot;&gt;&lt;font style=&quot;font-size: 17px;&quot;&gt;003&lt;/font&gt;&lt;/td&gt;&lt;td data-start=&quot;926&quot; data-end=&quot;943&quot; data-col-size=&quot;sm&quot;&gt;&lt;font style=&quot;font-size: 17px;&quot;&gt;PESQUISA&lt;/font&gt;&lt;/td&gt;&lt;td data-start=&quot;943&quot; data-end=&quot;986&quot; data-col-size=&quot;md&quot;&gt;&lt;font style=&quot;font-size: 17px;&quot;&gt;LEVANTAMENTO DE REQUISITOS&lt;/font&gt;&lt;/td&gt;&lt;td data-start=&quot;986&quot; data-end=&quot;1002&quot; data-col-size=&quot;sm&quot;&gt;&lt;font style=&quot;font-size: 17px;&quot;&gt;2668&lt;/font&gt;&lt;/td&gt;&lt;td data-start=&quot;1002&quot; data-end=&quot;1014&quot; data-col-size=&quot;sm&quot;&gt;&lt;font style=&quot;font-size: 17px;&quot;&gt;BELTRANO&lt;/font&gt;&lt;/td&gt;&lt;td data-start=&quot;1014&quot; data-end=&quot;1032&quot; data-col-size=&quot;sm&quot;&gt;&lt;font style=&quot;font-size: 17px;&quot;&gt;ANALISTA SÊNIOR&lt;/font&gt;&lt;/td&gt;&lt;td data-start=&quot;1032&quot; data-end=&quot;1042&quot; data-col-size=&quot;sm&quot;&gt;&lt;font style=&quot;font-size: 17px;&quot;&gt;8900&lt;/font&gt;&lt;/td&gt;&lt;td data-start=&quot;1042&quot; data-end=&quot;1062&quot; data-col-size=&quot;sm&quot;&gt;&lt;font style=&quot;font-size: 17px;&quot;&gt;01/04/2014&lt;/font&gt;&lt;/td&gt;&lt;/tr&gt;&lt;/tbody&gt;&lt;/table&gt;" style="text;whiteSpace=wrap;html=1;" vertex="1" parent="1">
          <mxGeometry x="70" y="80" width="1410" height="170" as="geometry" />
        </mxCell>
        <mxCell id="M1OJQKpELJWNm4TvlvLG-594" value="&lt;table class=&quot;w-fit min-w-(--thread-content-width)&quot; data-end=&quot;1894&quot; data-start=&quot;1159&quot;&gt;&lt;thead data-end=&quot;1304&quot; data-start=&quot;1159&quot;&gt;&lt;tr data-end=&quot;1304&quot; data-start=&quot;1159&quot;&gt;&lt;th data-col-size=&quot;sm&quot; data-end=&quot;1168&quot; data-start=&quot;1159&quot;&gt;CODIGO&lt;/th&gt;&lt;th data-col-size=&quot;sm&quot; data-end=&quot;1185&quot; data-start=&quot;1168&quot;&gt;TIPO&lt;/th&gt;&lt;th data-col-size=&quot;md&quot; data-end=&quot;1228&quot; data-start=&quot;1185&quot;&gt;DESCRICAO&lt;/th&gt;&lt;th data-col-size=&quot;sm&quot; data-end=&quot;1244&quot; data-start=&quot;1228&quot;&gt;COD_EMPREGADO&lt;/th&gt;&lt;th data-col-size=&quot;sm&quot; data-end=&quot;1256&quot; data-start=&quot;1244&quot;&gt;NOME_EMP&lt;/th&gt;&lt;th data-col-size=&quot;sm&quot; data-end=&quot;1274&quot; data-start=&quot;1256&quot;&gt;CAT_EMPREGADO&lt;/th&gt;&lt;th data-col-size=&quot;sm&quot; data-end=&quot;1284&quot; data-start=&quot;1274&quot;&gt;SALARIO&lt;/th&gt;&lt;th data-col-size=&quot;sm&quot; data-end=&quot;1304&quot; data-start=&quot;1284&quot;&gt;DATA_CONTRATACAO&lt;/th&gt;&lt;/tr&gt;&lt;/thead&gt;&lt;tbody data-end=&quot;1894&quot; data-start=&quot;1451&quot;&gt;&lt;tr data-end=&quot;1596&quot; data-start=&quot;1451&quot;&gt;&lt;td data-col-size=&quot;sm&quot; data-end=&quot;1460&quot; data-start=&quot;1451&quot;&gt;001&lt;/td&gt;&lt;td data-col-size=&quot;sm&quot; data-end=&quot;1477&quot; data-start=&quot;1460&quot;&gt;PESQUISA&lt;/td&gt;&lt;td data-col-size=&quot;md&quot; data-end=&quot;1520&quot; data-start=&quot;1477&quot;&gt;LEVANTAMENTO DE REQUISITOS&lt;/td&gt;&lt;td data-col-size=&quot;sm&quot; data-end=&quot;1536&quot; data-start=&quot;1520&quot;&gt;1002&lt;/td&gt;&lt;td data-col-size=&quot;sm&quot; data-end=&quot;1548&quot; data-start=&quot;1536&quot;&gt;FULANO&lt;/td&gt;&lt;td data-col-size=&quot;sm&quot; data-end=&quot;1566&quot; data-start=&quot;1548&quot;&gt;ANALISTA JÚNIOR&lt;/td&gt;&lt;td data-col-size=&quot;sm&quot; data-end=&quot;1576&quot; data-start=&quot;1566&quot;&gt;3500&lt;/td&gt;&lt;td data-col-size=&quot;sm&quot; data-end=&quot;1596&quot; data-start=&quot;1576&quot;&gt;01/02/2018&lt;/td&gt;&lt;/tr&gt;&lt;tr data-end=&quot;1748&quot; data-start=&quot;1597&quot;&gt;&lt;td data-col-size=&quot;sm&quot; data-end=&quot;1606&quot; data-start=&quot;1597&quot;&gt;002&lt;/td&gt;&lt;td data-col-size=&quot;sm&quot; data-end=&quot;1623&quot; data-start=&quot;1606&quot;&gt;DESENVOLVIMENTO&lt;/td&gt;&lt;td data-col-size=&quot;md&quot; data-end=&quot;1670&quot; data-start=&quot;1623&quot;&gt;DESENVOLVIMENTO DE APP PARA ATUAÇÃO EM CAMPO&lt;/td&gt;&lt;td data-col-size=&quot;sm&quot; data-end=&quot;1686&quot; data-start=&quot;1670&quot;&gt;2156&lt;/td&gt;&lt;td data-col-size=&quot;sm&quot; data-end=&quot;1698&quot; data-start=&quot;1686&quot;&gt;CICLANO&lt;/td&gt;&lt;td data-col-size=&quot;sm&quot; data-end=&quot;1721&quot; data-start=&quot;1698&quot;&gt;DESENVOLVEDOR JÚNIOR&lt;/td&gt;&lt;td data-col-size=&quot;sm&quot; data-end=&quot;1728&quot; data-start=&quot;1721&quot;&gt;3750&lt;/td&gt;&lt;td data-col-size=&quot;sm&quot; data-end=&quot;1748&quot; data-start=&quot;1728&quot;&gt;01/03/2018&lt;/td&gt;&lt;/tr&gt;&lt;tr data-end=&quot;1894&quot; data-start=&quot;1749&quot;&gt;&lt;td data-col-size=&quot;sm&quot; data-end=&quot;1758&quot; data-start=&quot;1749&quot;&gt;003&lt;/td&gt;&lt;td data-col-size=&quot;sm&quot; data-end=&quot;1775&quot; data-start=&quot;1758&quot;&gt;PESQUISA&lt;/td&gt;&lt;td data-col-size=&quot;md&quot; data-end=&quot;1818&quot; data-start=&quot;1775&quot;&gt;LEVANTAMENTO DE REQUISITOS&lt;/td&gt;&lt;td data-col-size=&quot;sm&quot; data-end=&quot;1834&quot; data-start=&quot;1818&quot;&gt;2668&lt;/td&gt;&lt;td data-col-size=&quot;sm&quot; data-end=&quot;1846&quot; data-start=&quot;1834&quot;&gt;BELTRANO&lt;/td&gt;&lt;td data-col-size=&quot;sm&quot; data-end=&quot;1864&quot; data-start=&quot;1846&quot;&gt;ANALISTA SÊNIOR&lt;/td&gt;&lt;td data-col-size=&quot;sm&quot; data-end=&quot;1874&quot; data-start=&quot;1864&quot;&gt;8900&lt;/td&gt;&lt;td data-col-size=&quot;sm&quot; data-end=&quot;1894&quot; data-start=&quot;1874&quot;&gt;01/04/2014&lt;/td&gt;&lt;/tr&gt;&lt;/tbody&gt;&lt;/table&gt;" style="text;whiteSpace=wrap;html=1;fontSize=17;" vertex="1" parent="1">
          <mxGeometry x="80" y="310" width="560" height="170" as="geometry" />
        </mxCell>
        <mxCell id="M1OJQKpELJWNm4TvlvLG-142" value="&#xa;Segunda Forma Normal (2FN)&#xa;" style="shape=table;startSize=30;container=1;collapsible=0;childLayout=tableLayout;strokeColor=default;fontSize=16;columnLines=1;miterlimit=7;swimlaneLine=1;shadow=1;" vertex="1" parent="1">
          <mxGeometry x="80" y="540" width="531" height="550" as="geometry" />
        </mxCell>
        <mxCell id="M1OJQKpELJWNm4TvlvLG-143" style="shape=tableRow;horizontal=0;startSize=0;swimlaneHead=0;swimlaneBody=0;strokeColor=inherit;top=0;left=0;bottom=0;right=0;collapsible=0;dropTarget=0;fillColor=none;points=[[0,0.5],[1,0.5]];portConstraint=eastwest;fontSize=16;miterlimit=7;sketch=1;curveFitting=1;jiggle=2;" vertex="1" parent="M1OJQKpELJWNm4TvlvLG-142">
          <mxGeometry y="30" width="531" height="24" as="geometry" />
        </mxCell>
        <mxCell id="M1OJQKpELJWNm4TvlvLG-144" value="" style="shape=partialRectangle;html=1;whiteSpace=wrap;connectable=0;strokeColor=inherit;overflow=hidden;fillColor=none;top=0;left=0;bottom=0;right=0;pointerEvents=1;fontSize=16;miterlimit=7;sketch=1;curveFitting=1;jiggle=2;rowspan=20;colspan=6;" vertex="1" parent="M1OJQKpELJWNm4TvlvLG-143">
          <mxGeometry width="531" height="520" as="geometry">
            <mxRectangle width="531" height="24" as="alternateBounds" />
          </mxGeometry>
        </mxCell>
        <mxCell id="M1OJQKpELJWNm4TvlvLG-150" value="" style="shape=tableRow;horizontal=0;startSize=0;swimlaneHead=0;swimlaneBody=0;strokeColor=inherit;top=0;left=0;bottom=0;right=0;collapsible=0;dropTarget=0;fillColor=none;points=[[0,0.5],[1,0.5]];portConstraint=eastwest;fontSize=16;miterlimit=7;sketch=1;curveFitting=1;jiggle=2;" vertex="1" parent="M1OJQKpELJWNm4TvlvLG-142">
          <mxGeometry y="54" width="531" height="19" as="geometry" />
        </mxCell>
        <mxCell id="M1OJQKpELJWNm4TvlvLG-151" value="" style="shape=partialRectangle;html=1;whiteSpace=wrap;connectable=0;strokeColor=inherit;overflow=hidden;fillColor=none;top=0;left=0;bottom=0;right=0;pointerEvents=1;fontSize=16;miterlimit=7;sketch=1;curveFitting=1;jiggle=2;" vertex="1" visible="0" parent="M1OJQKpELJWNm4TvlvLG-150">
          <mxGeometry width="531" height="19" as="geometry">
            <mxRectangle width="531" height="19" as="alternateBounds" />
          </mxGeometry>
        </mxCell>
        <mxCell id="M1OJQKpELJWNm4TvlvLG-157" value="" style="shape=tableRow;horizontal=0;startSize=0;swimlaneHead=0;swimlaneBody=0;strokeColor=inherit;top=0;left=0;bottom=0;right=0;collapsible=0;dropTarget=0;fillColor=none;points=[[0,0.5],[1,0.5]];portConstraint=eastwest;fontSize=16;miterlimit=7;sketch=1;curveFitting=1;jiggle=2;" vertex="1" parent="M1OJQKpELJWNm4TvlvLG-142">
          <mxGeometry y="73" width="531" height="30" as="geometry" />
        </mxCell>
        <mxCell id="M1OJQKpELJWNm4TvlvLG-158" value="" style="shape=partialRectangle;html=1;whiteSpace=wrap;connectable=0;strokeColor=inherit;overflow=hidden;fillColor=none;top=0;left=0;bottom=0;right=0;pointerEvents=1;fontSize=15;miterlimit=7;sketch=1;curveFitting=1;jiggle=2;" vertex="1" visible="0" parent="M1OJQKpELJWNm4TvlvLG-157">
          <mxGeometry width="531" height="30" as="geometry">
            <mxRectangle width="531" height="30" as="alternateBounds" />
          </mxGeometry>
        </mxCell>
        <mxCell id="M1OJQKpELJWNm4TvlvLG-164" style="shape=tableRow;horizontal=0;startSize=0;swimlaneHead=0;swimlaneBody=0;strokeColor=inherit;top=0;left=0;bottom=0;right=0;collapsible=0;dropTarget=0;fillColor=none;points=[[0,0.5],[1,0.5]];portConstraint=eastwest;fontSize=16;miterlimit=7;sketch=1;curveFitting=1;jiggle=2;" vertex="1" parent="M1OJQKpELJWNm4TvlvLG-142">
          <mxGeometry y="103" width="531" height="24" as="geometry" />
        </mxCell>
        <mxCell id="M1OJQKpELJWNm4TvlvLG-165" value="" style="shape=partialRectangle;html=1;whiteSpace=wrap;connectable=0;strokeColor=inherit;overflow=hidden;fillColor=none;top=0;left=0;bottom=0;right=0;pointerEvents=1;fontSize=15;miterlimit=7;sketch=1;curveFitting=1;jiggle=2;" vertex="1" visible="0" parent="M1OJQKpELJWNm4TvlvLG-164">
          <mxGeometry width="531" height="24" as="geometry">
            <mxRectangle width="531" height="24" as="alternateBounds" />
          </mxGeometry>
        </mxCell>
        <mxCell id="M1OJQKpELJWNm4TvlvLG-171" style="shape=tableRow;horizontal=0;startSize=0;swimlaneHead=0;swimlaneBody=0;strokeColor=inherit;top=0;left=0;bottom=0;right=0;collapsible=0;dropTarget=0;fillColor=none;points=[[0,0.5],[1,0.5]];portConstraint=eastwest;fontSize=16;miterlimit=7;sketch=1;curveFitting=1;jiggle=2;" vertex="1" parent="M1OJQKpELJWNm4TvlvLG-142">
          <mxGeometry y="127" width="531" height="30" as="geometry" />
        </mxCell>
        <mxCell id="M1OJQKpELJWNm4TvlvLG-172" value="" style="shape=partialRectangle;html=1;whiteSpace=wrap;connectable=0;strokeColor=inherit;overflow=hidden;fillColor=none;top=0;left=0;bottom=0;right=0;pointerEvents=1;fontSize=15;miterlimit=7;sketch=1;curveFitting=1;jiggle=2;" vertex="1" visible="0" parent="M1OJQKpELJWNm4TvlvLG-171">
          <mxGeometry width="531" height="30" as="geometry">
            <mxRectangle width="531" height="30" as="alternateBounds" />
          </mxGeometry>
        </mxCell>
        <mxCell id="M1OJQKpELJWNm4TvlvLG-185" style="shape=tableRow;horizontal=0;startSize=0;swimlaneHead=0;swimlaneBody=0;strokeColor=inherit;top=0;left=0;bottom=0;right=0;collapsible=0;dropTarget=0;fillColor=none;points=[[0,0.5],[1,0.5]];portConstraint=eastwest;fontSize=16;miterlimit=7;sketch=1;curveFitting=1;jiggle=2;" vertex="1" parent="M1OJQKpELJWNm4TvlvLG-142">
          <mxGeometry y="157" width="531" height="31" as="geometry" />
        </mxCell>
        <mxCell id="M1OJQKpELJWNm4TvlvLG-186" value="" style="shape=partialRectangle;html=1;whiteSpace=wrap;connectable=0;strokeColor=inherit;overflow=hidden;fillColor=none;top=0;left=0;bottom=0;right=0;pointerEvents=1;fontSize=15;miterlimit=7;sketch=1;curveFitting=1;jiggle=2;" vertex="1" visible="0" parent="M1OJQKpELJWNm4TvlvLG-185">
          <mxGeometry width="531" height="31" as="geometry">
            <mxRectangle width="531" height="31" as="alternateBounds" />
          </mxGeometry>
        </mxCell>
        <mxCell id="M1OJQKpELJWNm4TvlvLG-192" style="shape=tableRow;horizontal=0;startSize=0;swimlaneHead=0;swimlaneBody=0;strokeColor=inherit;top=0;left=0;bottom=0;right=0;collapsible=0;dropTarget=0;fillColor=none;points=[[0,0.5],[1,0.5]];portConstraint=eastwest;fontSize=16;miterlimit=7;sketch=1;curveFitting=1;jiggle=2;" vertex="1" parent="M1OJQKpELJWNm4TvlvLG-142">
          <mxGeometry y="188" width="531" height="31" as="geometry" />
        </mxCell>
        <mxCell id="M1OJQKpELJWNm4TvlvLG-193" value="" style="shape=partialRectangle;html=1;whiteSpace=wrap;connectable=0;strokeColor=inherit;overflow=hidden;fillColor=none;top=0;left=0;bottom=0;right=0;pointerEvents=1;fontSize=15;miterlimit=7;sketch=1;curveFitting=1;jiggle=2;" vertex="1" visible="0" parent="M1OJQKpELJWNm4TvlvLG-192">
          <mxGeometry width="531" height="31" as="geometry">
            <mxRectangle width="531" height="31" as="alternateBounds" />
          </mxGeometry>
        </mxCell>
        <mxCell id="M1OJQKpELJWNm4TvlvLG-199" style="shape=tableRow;horizontal=0;startSize=0;swimlaneHead=0;swimlaneBody=0;strokeColor=inherit;top=0;left=0;bottom=0;right=0;collapsible=0;dropTarget=0;fillColor=none;points=[[0,0.5],[1,0.5]];portConstraint=eastwest;fontSize=16;miterlimit=7;sketch=1;curveFitting=1;jiggle=2;" vertex="1" parent="M1OJQKpELJWNm4TvlvLG-142">
          <mxGeometry y="219" width="531" height="25" as="geometry" />
        </mxCell>
        <mxCell id="M1OJQKpELJWNm4TvlvLG-200" value="" style="shape=partialRectangle;html=1;whiteSpace=wrap;connectable=0;strokeColor=inherit;overflow=hidden;fillColor=none;top=0;left=0;bottom=0;right=0;pointerEvents=1;fontSize=15;miterlimit=7;sketch=1;curveFitting=1;jiggle=2;" vertex="1" visible="0" parent="M1OJQKpELJWNm4TvlvLG-199">
          <mxGeometry width="531" height="25" as="geometry">
            <mxRectangle width="531" height="25" as="alternateBounds" />
          </mxGeometry>
        </mxCell>
        <mxCell id="M1OJQKpELJWNm4TvlvLG-206" style="shape=tableRow;horizontal=0;startSize=0;swimlaneHead=0;swimlaneBody=0;strokeColor=inherit;top=0;left=0;bottom=0;right=0;collapsible=0;dropTarget=0;fillColor=none;points=[[0,0.5],[1,0.5]];portConstraint=eastwest;fontSize=16;miterlimit=7;sketch=1;curveFitting=1;jiggle=2;" vertex="1" parent="M1OJQKpELJWNm4TvlvLG-142">
          <mxGeometry y="244" width="531" height="24" as="geometry" />
        </mxCell>
        <mxCell id="M1OJQKpELJWNm4TvlvLG-207" value="" style="shape=partialRectangle;html=1;whiteSpace=wrap;connectable=0;strokeColor=inherit;overflow=hidden;fillColor=none;top=0;left=0;bottom=0;right=0;pointerEvents=1;fontSize=15;miterlimit=7;sketch=1;curveFitting=1;jiggle=2;" vertex="1" visible="0" parent="M1OJQKpELJWNm4TvlvLG-206">
          <mxGeometry width="531" height="24" as="geometry">
            <mxRectangle width="531" height="24" as="alternateBounds" />
          </mxGeometry>
        </mxCell>
        <mxCell id="M1OJQKpELJWNm4TvlvLG-213" style="shape=tableRow;horizontal=0;startSize=0;swimlaneHead=0;swimlaneBody=0;strokeColor=inherit;top=0;left=0;bottom=0;right=0;collapsible=0;dropTarget=0;fillColor=none;points=[[0,0.5],[1,0.5]];portConstraint=eastwest;fontSize=16;miterlimit=7;sketch=1;curveFitting=1;jiggle=2;" vertex="1" parent="M1OJQKpELJWNm4TvlvLG-142">
          <mxGeometry y="268" width="531" height="24" as="geometry" />
        </mxCell>
        <mxCell id="M1OJQKpELJWNm4TvlvLG-214" value="" style="shape=partialRectangle;html=1;whiteSpace=wrap;connectable=0;strokeColor=inherit;overflow=hidden;fillColor=none;top=0;left=0;bottom=0;right=0;pointerEvents=1;fontSize=15;miterlimit=7;sketch=1;curveFitting=1;jiggle=2;" vertex="1" visible="0" parent="M1OJQKpELJWNm4TvlvLG-213">
          <mxGeometry width="531" height="24" as="geometry">
            <mxRectangle width="531" height="24" as="alternateBounds" />
          </mxGeometry>
        </mxCell>
        <mxCell id="M1OJQKpELJWNm4TvlvLG-220" style="shape=tableRow;horizontal=0;startSize=0;swimlaneHead=0;swimlaneBody=0;strokeColor=inherit;top=0;left=0;bottom=0;right=0;collapsible=0;dropTarget=0;fillColor=none;points=[[0,0.5],[1,0.5]];portConstraint=eastwest;fontSize=16;miterlimit=7;sketch=1;curveFitting=1;jiggle=2;" vertex="1" parent="M1OJQKpELJWNm4TvlvLG-142">
          <mxGeometry y="292" width="531" height="25" as="geometry" />
        </mxCell>
        <mxCell id="M1OJQKpELJWNm4TvlvLG-221" value="" style="shape=partialRectangle;html=1;whiteSpace=wrap;connectable=0;strokeColor=inherit;overflow=hidden;fillColor=none;top=0;left=0;bottom=0;right=0;pointerEvents=1;fontSize=15;miterlimit=7;sketch=1;curveFitting=1;jiggle=2;" vertex="1" visible="0" parent="M1OJQKpELJWNm4TvlvLG-220">
          <mxGeometry width="531" height="25" as="geometry">
            <mxRectangle width="531" height="25" as="alternateBounds" />
          </mxGeometry>
        </mxCell>
        <mxCell id="M1OJQKpELJWNm4TvlvLG-227" style="shape=tableRow;horizontal=0;startSize=0;swimlaneHead=0;swimlaneBody=0;strokeColor=inherit;top=0;left=0;bottom=0;right=0;collapsible=0;dropTarget=0;fillColor=none;points=[[0,0.5],[1,0.5]];portConstraint=eastwest;fontSize=16;miterlimit=7;sketch=1;curveFitting=1;jiggle=2;" vertex="1" parent="M1OJQKpELJWNm4TvlvLG-142">
          <mxGeometry y="317" width="531" height="24" as="geometry" />
        </mxCell>
        <mxCell id="M1OJQKpELJWNm4TvlvLG-228" value="" style="shape=partialRectangle;html=1;whiteSpace=wrap;connectable=0;strokeColor=inherit;overflow=hidden;fillColor=none;top=0;left=0;bottom=0;right=0;pointerEvents=1;fontSize=15;miterlimit=7;sketch=1;curveFitting=1;jiggle=2;" vertex="1" visible="0" parent="M1OJQKpELJWNm4TvlvLG-227">
          <mxGeometry width="531" height="24" as="geometry">
            <mxRectangle width="531" height="24" as="alternateBounds" />
          </mxGeometry>
        </mxCell>
        <mxCell id="M1OJQKpELJWNm4TvlvLG-234" style="shape=tableRow;horizontal=0;startSize=0;swimlaneHead=0;swimlaneBody=0;strokeColor=inherit;top=0;left=0;bottom=0;right=0;collapsible=0;dropTarget=0;fillColor=none;points=[[0,0.5],[1,0.5]];portConstraint=eastwest;fontSize=16;miterlimit=7;sketch=1;curveFitting=1;jiggle=2;" vertex="1" parent="M1OJQKpELJWNm4TvlvLG-142">
          <mxGeometry y="341" width="531" height="25" as="geometry" />
        </mxCell>
        <mxCell id="M1OJQKpELJWNm4TvlvLG-235" value="" style="shape=partialRectangle;html=1;whiteSpace=wrap;connectable=0;strokeColor=inherit;overflow=hidden;fillColor=none;top=0;left=0;bottom=0;right=0;pointerEvents=1;fontSize=15;miterlimit=7;sketch=1;curveFitting=1;jiggle=2;" vertex="1" visible="0" parent="M1OJQKpELJWNm4TvlvLG-234">
          <mxGeometry width="531" height="25" as="geometry">
            <mxRectangle width="531" height="25" as="alternateBounds" />
          </mxGeometry>
        </mxCell>
        <mxCell id="M1OJQKpELJWNm4TvlvLG-241" style="shape=tableRow;horizontal=0;startSize=0;swimlaneHead=0;swimlaneBody=0;strokeColor=inherit;top=0;left=0;bottom=0;right=0;collapsible=0;dropTarget=0;fillColor=none;points=[[0,0.5],[1,0.5]];portConstraint=eastwest;fontSize=16;miterlimit=7;sketch=1;curveFitting=1;jiggle=2;" vertex="1" parent="M1OJQKpELJWNm4TvlvLG-142">
          <mxGeometry y="366" width="531" height="24" as="geometry" />
        </mxCell>
        <mxCell id="M1OJQKpELJWNm4TvlvLG-242" value="" style="shape=partialRectangle;html=1;whiteSpace=wrap;connectable=0;strokeColor=inherit;overflow=hidden;fillColor=none;top=0;left=0;bottom=0;right=0;pointerEvents=1;fontSize=15;miterlimit=7;sketch=1;curveFitting=1;jiggle=2;" vertex="1" visible="0" parent="M1OJQKpELJWNm4TvlvLG-241">
          <mxGeometry width="531" height="24" as="geometry">
            <mxRectangle width="531" height="24" as="alternateBounds" />
          </mxGeometry>
        </mxCell>
        <mxCell id="M1OJQKpELJWNm4TvlvLG-248" style="shape=tableRow;horizontal=0;startSize=0;swimlaneHead=0;swimlaneBody=0;strokeColor=inherit;top=0;left=0;bottom=0;right=0;collapsible=0;dropTarget=0;fillColor=none;points=[[0,0.5],[1,0.5]];portConstraint=eastwest;fontSize=16;miterlimit=7;sketch=1;curveFitting=1;jiggle=2;" vertex="1" parent="M1OJQKpELJWNm4TvlvLG-142">
          <mxGeometry y="390" width="531" height="28" as="geometry" />
        </mxCell>
        <mxCell id="M1OJQKpELJWNm4TvlvLG-249" value="" style="shape=partialRectangle;html=1;whiteSpace=wrap;connectable=0;strokeColor=inherit;overflow=hidden;fillColor=none;top=0;left=0;bottom=0;right=0;pointerEvents=1;fontSize=15;miterlimit=7;sketch=1;curveFitting=1;jiggle=2;" vertex="1" visible="0" parent="M1OJQKpELJWNm4TvlvLG-248">
          <mxGeometry width="531" height="28" as="geometry">
            <mxRectangle width="531" height="28" as="alternateBounds" />
          </mxGeometry>
        </mxCell>
        <mxCell id="M1OJQKpELJWNm4TvlvLG-255" style="shape=tableRow;horizontal=0;startSize=0;swimlaneHead=0;swimlaneBody=0;strokeColor=inherit;top=0;left=0;bottom=0;right=0;collapsible=0;dropTarget=0;fillColor=none;points=[[0,0.5],[1,0.5]];portConstraint=eastwest;fontSize=16;miterlimit=7;sketch=1;curveFitting=1;jiggle=2;" vertex="1" parent="M1OJQKpELJWNm4TvlvLG-142">
          <mxGeometry y="418" width="531" height="25" as="geometry" />
        </mxCell>
        <mxCell id="M1OJQKpELJWNm4TvlvLG-256" value="" style="shape=partialRectangle;html=1;whiteSpace=wrap;connectable=0;strokeColor=inherit;overflow=hidden;fillColor=none;top=0;left=0;bottom=0;right=0;pointerEvents=1;fontSize=15;miterlimit=7;sketch=1;curveFitting=1;jiggle=2;" vertex="1" visible="0" parent="M1OJQKpELJWNm4TvlvLG-255">
          <mxGeometry width="531" height="25" as="geometry">
            <mxRectangle width="531" height="25" as="alternateBounds" />
          </mxGeometry>
        </mxCell>
        <mxCell id="M1OJQKpELJWNm4TvlvLG-262" style="shape=tableRow;horizontal=0;startSize=0;swimlaneHead=0;swimlaneBody=0;strokeColor=inherit;top=0;left=0;bottom=0;right=0;collapsible=0;dropTarget=0;fillColor=none;points=[[0,0.5],[1,0.5]];portConstraint=eastwest;fontSize=16;miterlimit=7;sketch=1;curveFitting=1;jiggle=2;" vertex="1" parent="M1OJQKpELJWNm4TvlvLG-142">
          <mxGeometry y="443" width="531" height="24" as="geometry" />
        </mxCell>
        <mxCell id="M1OJQKpELJWNm4TvlvLG-263" value="" style="shape=partialRectangle;html=1;whiteSpace=wrap;connectable=0;strokeColor=inherit;overflow=hidden;fillColor=none;top=0;left=0;bottom=0;right=0;pointerEvents=1;fontSize=15;miterlimit=7;sketch=1;curveFitting=1;jiggle=2;" vertex="1" visible="0" parent="M1OJQKpELJWNm4TvlvLG-262">
          <mxGeometry width="531" height="24" as="geometry">
            <mxRectangle width="531" height="24" as="alternateBounds" />
          </mxGeometry>
        </mxCell>
        <mxCell id="M1OJQKpELJWNm4TvlvLG-269" style="shape=tableRow;horizontal=0;startSize=0;swimlaneHead=0;swimlaneBody=0;strokeColor=inherit;top=0;left=0;bottom=0;right=0;collapsible=0;dropTarget=0;fillColor=none;points=[[0,0.5],[1,0.5]];portConstraint=eastwest;fontSize=16;miterlimit=7;sketch=1;curveFitting=1;jiggle=2;" vertex="1" parent="M1OJQKpELJWNm4TvlvLG-142">
          <mxGeometry y="467" width="531" height="25" as="geometry" />
        </mxCell>
        <mxCell id="M1OJQKpELJWNm4TvlvLG-270" value="" style="shape=partialRectangle;html=1;whiteSpace=wrap;connectable=0;strokeColor=inherit;overflow=hidden;fillColor=none;top=0;left=0;bottom=0;right=0;pointerEvents=1;fontSize=15;miterlimit=7;sketch=1;curveFitting=1;jiggle=2;" vertex="1" visible="0" parent="M1OJQKpELJWNm4TvlvLG-269">
          <mxGeometry width="531" height="25" as="geometry">
            <mxRectangle width="531" height="25" as="alternateBounds" />
          </mxGeometry>
        </mxCell>
        <mxCell id="M1OJQKpELJWNm4TvlvLG-276" style="shape=tableRow;horizontal=0;startSize=0;swimlaneHead=0;swimlaneBody=0;strokeColor=inherit;top=0;left=0;bottom=0;right=0;collapsible=0;dropTarget=0;fillColor=none;points=[[0,0.5],[1,0.5]];portConstraint=eastwest;fontSize=16;miterlimit=7;sketch=1;curveFitting=1;jiggle=2;" vertex="1" parent="M1OJQKpELJWNm4TvlvLG-142">
          <mxGeometry y="492" width="531" height="25" as="geometry" />
        </mxCell>
        <mxCell id="M1OJQKpELJWNm4TvlvLG-277" value="" style="shape=partialRectangle;html=1;whiteSpace=wrap;connectable=0;strokeColor=inherit;overflow=hidden;fillColor=none;top=0;left=0;bottom=0;right=0;pointerEvents=1;fontSize=15;miterlimit=7;sketch=1;curveFitting=1;jiggle=2;" vertex="1" visible="0" parent="M1OJQKpELJWNm4TvlvLG-276">
          <mxGeometry width="531" height="25" as="geometry">
            <mxRectangle width="531" height="25" as="alternateBounds" />
          </mxGeometry>
        </mxCell>
        <mxCell id="M1OJQKpELJWNm4TvlvLG-283" style="shape=tableRow;horizontal=0;startSize=0;swimlaneHead=0;swimlaneBody=0;strokeColor=inherit;top=0;left=0;bottom=0;right=0;collapsible=0;dropTarget=0;fillColor=none;points=[[0,0.5],[1,0.5]];portConstraint=eastwest;fontSize=16;miterlimit=7;sketch=1;curveFitting=1;jiggle=2;" vertex="1" parent="M1OJQKpELJWNm4TvlvLG-142">
          <mxGeometry y="517" width="531" height="33" as="geometry" />
        </mxCell>
        <mxCell id="M1OJQKpELJWNm4TvlvLG-284" value="" style="shape=partialRectangle;html=1;whiteSpace=wrap;connectable=0;strokeColor=inherit;overflow=hidden;fillColor=none;top=0;left=0;bottom=0;right=0;pointerEvents=1;fontSize=15;miterlimit=7;sketch=1;curveFitting=1;jiggle=2;" vertex="1" visible="0" parent="M1OJQKpELJWNm4TvlvLG-283">
          <mxGeometry width="531" height="33" as="geometry">
            <mxRectangle width="531" height="33" as="alternateBounds" />
          </mxGeometry>
        </mxCell>
        <mxCell id="M1OJQKpELJWNm4TvlvLG-603" value="&lt;h3 data-start=&quot;2056&quot; data-end=&quot;2076&quot;&gt;Tabela &lt;code data-start=&quot;2067&quot; data-end=&quot;2076&quot;&gt;PROJETO&lt;/code&gt;&lt;/h3&gt;&#xa;&lt;div class=&quot;_tableContainer_1rjym_1&quot;&gt;&lt;div tabindex=&quot;-1&quot; class=&quot;_tableWrapper_1rjym_13 group flex w-fit flex-col-reverse&quot;&gt;&lt;table data-start=&quot;2077&quot; data-end=&quot;2435&quot; class=&quot;w-fit min-w-(--thread-content-width)&quot;&gt;&lt;thead data-start=&quot;2077&quot; data-end=&quot;2147&quot;&gt;&lt;tr data-start=&quot;2077&quot; data-end=&quot;2147&quot;&gt;&lt;th data-start=&quot;2077&quot; data-end=&quot;2086&quot; data-col-size=&quot;sm&quot;&gt;CODIGO&lt;/th&gt;&lt;th data-start=&quot;2086&quot; data-end=&quot;2103&quot; data-col-size=&quot;sm&quot;&gt;TIPO&lt;/th&gt;&lt;th data-start=&quot;2103&quot; data-end=&quot;2147&quot; data-col-size=&quot;md&quot;&gt;DESCRICAO&lt;/th&gt;&lt;/tr&gt;&lt;/thead&gt;&lt;tbody data-start=&quot;2219&quot; data-end=&quot;2435&quot;&gt;&lt;tr data-start=&quot;2219&quot; data-end=&quot;2289&quot;&gt;&lt;td data-start=&quot;2219&quot; data-end=&quot;2228&quot; data-col-size=&quot;sm&quot;&gt;001&lt;/td&gt;&lt;td data-start=&quot;2228&quot; data-end=&quot;2245&quot; data-col-size=&quot;sm&quot;&gt;PESQUISA&lt;/td&gt;&lt;td data-start=&quot;2245&quot; data-end=&quot;2289&quot; data-col-size=&quot;md&quot;&gt;LEVANTAMENTO DE REQUISITOS&lt;/td&gt;&lt;/tr&gt;&lt;tr data-start=&quot;2290&quot; data-end=&quot;2364&quot;&gt;&lt;td data-start=&quot;2290&quot; data-end=&quot;2299&quot; data-col-size=&quot;sm&quot;&gt;002&lt;/td&gt;&lt;td data-start=&quot;2299&quot; data-end=&quot;2316&quot; data-col-size=&quot;sm&quot;&gt;DESENVOLVIMENTO&lt;/td&gt;&lt;td data-start=&quot;2316&quot; data-end=&quot;2364&quot; data-col-size=&quot;md&quot;&gt;DESENVOLVIMENTO DE APP PARA ATUAÇÃO EM CAMPO&lt;/td&gt;&lt;/tr&gt;&lt;tr data-start=&quot;2365&quot; data-end=&quot;2435&quot;&gt;&lt;td data-start=&quot;2365&quot; data-end=&quot;2374&quot; data-col-size=&quot;sm&quot;&gt;003&lt;/td&gt;&lt;td data-start=&quot;2374&quot; data-end=&quot;2391&quot; data-col-size=&quot;sm&quot;&gt;PESQUISA&lt;/td&gt;&lt;td data-start=&quot;2391&quot; data-end=&quot;2435&quot; data-col-size=&quot;md&quot;&gt;LEVANTAMENTO DE REQUISITOS&lt;/td&gt;&lt;/tr&gt;&lt;/tbody&gt;&lt;/table&gt;&lt;/div&gt;&lt;/div&gt;&#xa;&lt;h3 data-start=&quot;2437&quot; data-end=&quot;2459&quot;&gt;Tabela &lt;code data-start=&quot;2448&quot; data-end=&quot;2459&quot;&gt;EMPREGADO&lt;/code&gt;&lt;/h3&gt;&#xa;&lt;div class=&quot;_tableContainer_1rjym_1&quot;&gt;&lt;div tabindex=&quot;-1&quot; class=&quot;_tableWrapper_1rjym_13 group flex w-fit flex-col-reverse&quot;&gt;&lt;table data-start=&quot;2460&quot; data-end=&quot;2846&quot; class=&quot;w-fit min-w-(--thread-content-width)&quot;&gt;&lt;thead data-start=&quot;2460&quot; data-end=&quot;2536&quot;&gt;&lt;tr data-start=&quot;2460&quot; data-end=&quot;2536&quot;&gt;&lt;th data-start=&quot;2460&quot; data-end=&quot;2476&quot; data-col-size=&quot;sm&quot;&gt;COD_EMPREGADO&lt;/th&gt;&lt;th data-start=&quot;2476&quot; data-end=&quot;2488&quot; data-col-size=&quot;sm&quot;&gt;NOME_EMP&lt;/th&gt;&lt;th data-start=&quot;2488&quot; data-end=&quot;2506&quot; data-col-size=&quot;sm&quot;&gt;CAT_EMPREGADO&lt;/th&gt;&lt;th data-start=&quot;2506&quot; data-end=&quot;2516&quot; data-col-size=&quot;sm&quot;&gt;SALARIO&lt;/th&gt;&lt;th data-start=&quot;2516&quot; data-end=&quot;2536&quot; data-col-size=&quot;sm&quot;&gt;DATA_CONTRATACAO&lt;/th&gt;&lt;/tr&gt;&lt;/thead&gt;&lt;tbody data-start=&quot;2614&quot; data-end=&quot;2846&quot;&gt;&lt;tr data-start=&quot;2614&quot; data-end=&quot;2690&quot;&gt;&lt;td data-start=&quot;2614&quot; data-end=&quot;2630&quot; data-col-size=&quot;sm&quot;&gt;1002&lt;/td&gt;&lt;td data-start=&quot;2630&quot; data-end=&quot;2642&quot; data-col-size=&quot;sm&quot;&gt;FULANO&lt;/td&gt;&lt;td data-start=&quot;2642&quot; data-end=&quot;2660&quot; data-col-size=&quot;sm&quot;&gt;ANALISTA JÚNIOR&lt;/td&gt;&lt;td data-start=&quot;2660&quot; data-end=&quot;2670&quot; data-col-size=&quot;sm&quot;&gt;3500&lt;/td&gt;&lt;td data-start=&quot;2670&quot; data-end=&quot;2690&quot; data-col-size=&quot;sm&quot;&gt;01/02/2018&lt;/td&gt;&lt;/tr&gt;&lt;tr data-start=&quot;2691&quot; data-end=&quot;2769&quot;&gt;&lt;td data-start=&quot;2691&quot; data-end=&quot;2707&quot; data-col-size=&quot;sm&quot;&gt;2156&lt;/td&gt;&lt;td data-start=&quot;2707&quot; data-end=&quot;2719&quot; data-col-size=&quot;sm&quot;&gt;CICLANO&lt;/td&gt;&lt;td data-start=&quot;2719&quot; data-end=&quot;2742&quot; data-col-size=&quot;sm&quot;&gt;DESENVOLVEDOR JÚNIOR&lt;/td&gt;&lt;td data-start=&quot;2742&quot; data-end=&quot;2749&quot; data-col-size=&quot;sm&quot;&gt;3750&lt;/td&gt;&lt;td data-start=&quot;2749&quot; data-end=&quot;2769&quot; data-col-size=&quot;sm&quot;&gt;01/03/2018&lt;/td&gt;&lt;/tr&gt;&lt;tr data-start=&quot;2770&quot; data-end=&quot;2846&quot;&gt;&lt;td data-start=&quot;2770&quot; data-end=&quot;2786&quot; data-col-size=&quot;sm&quot;&gt;2668&lt;/td&gt;&lt;td data-start=&quot;2786&quot; data-end=&quot;2798&quot; data-col-size=&quot;sm&quot;&gt;BELTRANO&lt;/td&gt;&lt;td data-start=&quot;2798&quot; data-end=&quot;2816&quot; data-col-size=&quot;sm&quot;&gt;ANALISTA SÊNIOR&lt;/td&gt;&lt;td data-start=&quot;2816&quot; data-end=&quot;2826&quot; data-col-size=&quot;sm&quot;&gt;8900&lt;/td&gt;&lt;td data-start=&quot;2826&quot; data-end=&quot;2846&quot; data-col-size=&quot;sm&quot;&gt;01/04/2014&lt;/td&gt;&lt;/tr&gt;&lt;/tbody&gt;&lt;/table&gt;&lt;/div&gt;&lt;/div&gt;&#xa;&lt;h3 data-start=&quot;2848&quot; data-end=&quot;2878&quot;&gt;Tabela &lt;code data-start=&quot;2859&quot; data-end=&quot;2878&quot;&gt;PROJETO_EMPREGADO&lt;/code&gt;&lt;/h3&gt;&#xa;&lt;div class=&quot;_tableContainer_1rjym_1&quot;&gt;&lt;div tabindex=&quot;-1&quot; class=&quot;_tableWrapper_1rjym_13 group flex w-fit flex-col-reverse&quot;&gt;&lt;table data-start=&quot;2879&quot; data-end=&quot;3013&quot; class=&quot;w-fit min-w-(--thread-content-width)&quot;&gt;&lt;thead data-start=&quot;2879&quot; data-end=&quot;2905&quot;&gt;&lt;tr data-start=&quot;2879&quot; data-end=&quot;2905&quot;&gt;&lt;th data-start=&quot;2879&quot; data-end=&quot;2888&quot; data-col-size=&quot;sm&quot;&gt;CODIGO&lt;/th&gt;&lt;th data-start=&quot;2888&quot; data-end=&quot;2905&quot; data-col-size=&quot;sm&quot;&gt;COD_EMPREGADO&lt;/th&gt;&lt;/tr&gt;&lt;/thead&gt;&lt;tbody data-start=&quot;2933&quot; data-end=&quot;3013&quot;&gt;&lt;tr data-start=&quot;2933&quot; data-end=&quot;2959&quot;&gt;&lt;td data-start=&quot;2933&quot; data-end=&quot;2942&quot; data-col-size=&quot;sm&quot;&gt;001&lt;/td&gt;&lt;td data-start=&quot;2942&quot; data-end=&quot;2959&quot; data-col-size=&quot;sm&quot;&gt;1002&lt;/td&gt;&lt;/tr&gt;&lt;tr data-start=&quot;2960&quot; data-end=&quot;2986&quot;&gt;&lt;td data-start=&quot;2960&quot; data-end=&quot;2969&quot; data-col-size=&quot;sm&quot;&gt;002&lt;/td&gt;&lt;td data-start=&quot;2969&quot; data-end=&quot;2986&quot; data-col-size=&quot;sm&quot;&gt;2156&lt;/td&gt;&lt;/tr&gt;&lt;tr data-start=&quot;2987&quot; data-end=&quot;3013&quot;&gt;&lt;td data-start=&quot;2987&quot; data-end=&quot;2996&quot; data-col-size=&quot;sm&quot;&gt;003&lt;/td&gt;&lt;td data-start=&quot;2996&quot; data-end=&quot;3013&quot; data-col-size=&quot;sm&quot;&gt;2668&lt;/td&gt;&lt;/tr&gt;&lt;/tbody&gt;&lt;/table&gt;&lt;/div&gt;&lt;/div&gt;" style="text;whiteSpace=wrap;html=1;" vertex="1" parent="1">
          <mxGeometry x="100" y="594" width="500" height="466" as="geometry" />
        </mxCell>
        <mxCell id="M1OJQKpELJWNm4TvlvLG-605" value="" style="shape=partialRectangle;html=1;whiteSpace=wrap;connectable=0;strokeColor=inherit;overflow=hidden;fillColor=none;top=0;left=0;bottom=0;right=0;pointerEvents=1;fontSize=16;miterlimit=7;sketch=1;curveFitting=1;jiggle=2;" vertex="1" parent="1">
          <mxGeometry x="803" y="1080" width="170" height="50" as="geometry">
            <mxRectangle width="170" height="50" as="alternateBounds" />
          </mxGeometry>
        </mxCell>
        <mxCell id="M1OJQKpELJWNm4TvlvLG-606" value="Forma Normal (3FN)" style="shape=table;startSize=30;container=1;collapsible=0;childLayout=tableLayout;strokeColor=default;fontSize=16;columnLines=1;miterlimit=7;swimlaneLine=1;shadow=1;" vertex="1" parent="1">
          <mxGeometry x="659" y="540" width="531" height="640" as="geometry" />
        </mxCell>
        <mxCell id="M1OJQKpELJWNm4TvlvLG-607" style="shape=tableRow;horizontal=0;startSize=0;swimlaneHead=0;swimlaneBody=0;strokeColor=inherit;top=0;left=0;bottom=0;right=0;collapsible=0;dropTarget=0;fillColor=none;points=[[0,0.5],[1,0.5]];portConstraint=eastwest;fontSize=16;miterlimit=7;sketch=1;curveFitting=1;jiggle=2;" vertex="1" parent="M1OJQKpELJWNm4TvlvLG-606">
          <mxGeometry y="30" width="531" height="28" as="geometry" />
        </mxCell>
        <mxCell id="M1OJQKpELJWNm4TvlvLG-608" value="" style="shape=partialRectangle;html=1;whiteSpace=wrap;connectable=0;strokeColor=inherit;overflow=hidden;fillColor=none;top=0;left=0;bottom=0;right=0;pointerEvents=1;fontSize=16;miterlimit=7;sketch=1;curveFitting=1;jiggle=2;rowspan=20;colspan=6;" vertex="1" parent="M1OJQKpELJWNm4TvlvLG-607">
          <mxGeometry width="531" height="610" as="geometry">
            <mxRectangle width="531" height="28" as="alternateBounds" />
          </mxGeometry>
        </mxCell>
        <mxCell id="M1OJQKpELJWNm4TvlvLG-609" value="" style="shape=tableRow;horizontal=0;startSize=0;swimlaneHead=0;swimlaneBody=0;strokeColor=inherit;top=0;left=0;bottom=0;right=0;collapsible=0;dropTarget=0;fillColor=none;points=[[0,0.5],[1,0.5]];portConstraint=eastwest;fontSize=16;miterlimit=7;sketch=1;curveFitting=1;jiggle=2;" vertex="1" parent="M1OJQKpELJWNm4TvlvLG-606">
          <mxGeometry y="58" width="531" height="23" as="geometry" />
        </mxCell>
        <mxCell id="M1OJQKpELJWNm4TvlvLG-610" value="" style="shape=partialRectangle;html=1;whiteSpace=wrap;connectable=0;strokeColor=inherit;overflow=hidden;fillColor=none;top=0;left=0;bottom=0;right=0;pointerEvents=1;fontSize=16;miterlimit=7;sketch=1;curveFitting=1;jiggle=2;" vertex="1" visible="0" parent="M1OJQKpELJWNm4TvlvLG-609">
          <mxGeometry width="531" height="23" as="geometry">
            <mxRectangle width="531" height="23" as="alternateBounds" />
          </mxGeometry>
        </mxCell>
        <mxCell id="M1OJQKpELJWNm4TvlvLG-611" value="" style="shape=tableRow;horizontal=0;startSize=0;swimlaneHead=0;swimlaneBody=0;strokeColor=inherit;top=0;left=0;bottom=0;right=0;collapsible=0;dropTarget=0;fillColor=none;points=[[0,0.5],[1,0.5]];portConstraint=eastwest;fontSize=16;miterlimit=7;sketch=1;curveFitting=1;jiggle=2;" vertex="1" parent="M1OJQKpELJWNm4TvlvLG-606">
          <mxGeometry y="81" width="531" height="34" as="geometry" />
        </mxCell>
        <mxCell id="M1OJQKpELJWNm4TvlvLG-612" value="" style="shape=partialRectangle;html=1;whiteSpace=wrap;connectable=0;strokeColor=inherit;overflow=hidden;fillColor=none;top=0;left=0;bottom=0;right=0;pointerEvents=1;fontSize=15;miterlimit=7;sketch=1;curveFitting=1;jiggle=2;" vertex="1" visible="0" parent="M1OJQKpELJWNm4TvlvLG-611">
          <mxGeometry width="531" height="34" as="geometry">
            <mxRectangle width="531" height="34" as="alternateBounds" />
          </mxGeometry>
        </mxCell>
        <mxCell id="M1OJQKpELJWNm4TvlvLG-613" style="shape=tableRow;horizontal=0;startSize=0;swimlaneHead=0;swimlaneBody=0;strokeColor=inherit;top=0;left=0;bottom=0;right=0;collapsible=0;dropTarget=0;fillColor=none;points=[[0,0.5],[1,0.5]];portConstraint=eastwest;fontSize=16;miterlimit=7;sketch=1;curveFitting=1;jiggle=2;" vertex="1" parent="M1OJQKpELJWNm4TvlvLG-606">
          <mxGeometry y="115" width="531" height="29" as="geometry" />
        </mxCell>
        <mxCell id="M1OJQKpELJWNm4TvlvLG-614" value="" style="shape=partialRectangle;html=1;whiteSpace=wrap;connectable=0;strokeColor=inherit;overflow=hidden;fillColor=none;top=0;left=0;bottom=0;right=0;pointerEvents=1;fontSize=15;miterlimit=7;sketch=1;curveFitting=1;jiggle=2;" vertex="1" visible="0" parent="M1OJQKpELJWNm4TvlvLG-613">
          <mxGeometry width="531" height="29" as="geometry">
            <mxRectangle width="531" height="29" as="alternateBounds" />
          </mxGeometry>
        </mxCell>
        <mxCell id="M1OJQKpELJWNm4TvlvLG-615" style="shape=tableRow;horizontal=0;startSize=0;swimlaneHead=0;swimlaneBody=0;strokeColor=inherit;top=0;left=0;bottom=0;right=0;collapsible=0;dropTarget=0;fillColor=none;points=[[0,0.5],[1,0.5]];portConstraint=eastwest;fontSize=16;miterlimit=7;sketch=1;curveFitting=1;jiggle=2;" vertex="1" parent="M1OJQKpELJWNm4TvlvLG-606">
          <mxGeometry y="144" width="531" height="34" as="geometry" />
        </mxCell>
        <mxCell id="M1OJQKpELJWNm4TvlvLG-616" value="" style="shape=partialRectangle;html=1;whiteSpace=wrap;connectable=0;strokeColor=inherit;overflow=hidden;fillColor=none;top=0;left=0;bottom=0;right=0;pointerEvents=1;fontSize=15;miterlimit=7;sketch=1;curveFitting=1;jiggle=2;" vertex="1" visible="0" parent="M1OJQKpELJWNm4TvlvLG-615">
          <mxGeometry width="531" height="34" as="geometry">
            <mxRectangle width="531" height="34" as="alternateBounds" />
          </mxGeometry>
        </mxCell>
        <mxCell id="M1OJQKpELJWNm4TvlvLG-617" style="shape=tableRow;horizontal=0;startSize=0;swimlaneHead=0;swimlaneBody=0;strokeColor=inherit;top=0;left=0;bottom=0;right=0;collapsible=0;dropTarget=0;fillColor=none;points=[[0,0.5],[1,0.5]];portConstraint=eastwest;fontSize=16;miterlimit=7;sketch=1;curveFitting=1;jiggle=2;" vertex="1" parent="M1OJQKpELJWNm4TvlvLG-606">
          <mxGeometry y="178" width="531" height="37" as="geometry" />
        </mxCell>
        <mxCell id="M1OJQKpELJWNm4TvlvLG-618" value="" style="shape=partialRectangle;html=1;whiteSpace=wrap;connectable=0;strokeColor=inherit;overflow=hidden;fillColor=none;top=0;left=0;bottom=0;right=0;pointerEvents=1;fontSize=15;miterlimit=7;sketch=1;curveFitting=1;jiggle=2;" vertex="1" visible="0" parent="M1OJQKpELJWNm4TvlvLG-617">
          <mxGeometry width="531" height="37" as="geometry">
            <mxRectangle width="531" height="37" as="alternateBounds" />
          </mxGeometry>
        </mxCell>
        <mxCell id="M1OJQKpELJWNm4TvlvLG-619" style="shape=tableRow;horizontal=0;startSize=0;swimlaneHead=0;swimlaneBody=0;strokeColor=inherit;top=0;left=0;bottom=0;right=0;collapsible=0;dropTarget=0;fillColor=none;points=[[0,0.5],[1,0.5]];portConstraint=eastwest;fontSize=16;miterlimit=7;sketch=1;curveFitting=1;jiggle=2;" vertex="1" parent="M1OJQKpELJWNm4TvlvLG-606">
          <mxGeometry y="215" width="531" height="37" as="geometry" />
        </mxCell>
        <mxCell id="M1OJQKpELJWNm4TvlvLG-620" value="" style="shape=partialRectangle;html=1;whiteSpace=wrap;connectable=0;strokeColor=inherit;overflow=hidden;fillColor=none;top=0;left=0;bottom=0;right=0;pointerEvents=1;fontSize=15;miterlimit=7;sketch=1;curveFitting=1;jiggle=2;" vertex="1" visible="0" parent="M1OJQKpELJWNm4TvlvLG-619">
          <mxGeometry width="531" height="37" as="geometry">
            <mxRectangle width="531" height="37" as="alternateBounds" />
          </mxGeometry>
        </mxCell>
        <mxCell id="M1OJQKpELJWNm4TvlvLG-621" style="shape=tableRow;horizontal=0;startSize=0;swimlaneHead=0;swimlaneBody=0;strokeColor=inherit;top=0;left=0;bottom=0;right=0;collapsible=0;dropTarget=0;fillColor=none;points=[[0,0.5],[1,0.5]];portConstraint=eastwest;fontSize=16;miterlimit=7;sketch=1;curveFitting=1;jiggle=2;" vertex="1" parent="M1OJQKpELJWNm4TvlvLG-606">
          <mxGeometry y="252" width="531" height="29" as="geometry" />
        </mxCell>
        <mxCell id="M1OJQKpELJWNm4TvlvLG-622" value="" style="shape=partialRectangle;html=1;whiteSpace=wrap;connectable=0;strokeColor=inherit;overflow=hidden;fillColor=none;top=0;left=0;bottom=0;right=0;pointerEvents=1;fontSize=15;miterlimit=7;sketch=1;curveFitting=1;jiggle=2;" vertex="1" visible="0" parent="M1OJQKpELJWNm4TvlvLG-621">
          <mxGeometry width="531" height="29" as="geometry">
            <mxRectangle width="531" height="29" as="alternateBounds" />
          </mxGeometry>
        </mxCell>
        <mxCell id="M1OJQKpELJWNm4TvlvLG-623" style="shape=tableRow;horizontal=0;startSize=0;swimlaneHead=0;swimlaneBody=0;strokeColor=inherit;top=0;left=0;bottom=0;right=0;collapsible=0;dropTarget=0;fillColor=none;points=[[0,0.5],[1,0.5]];portConstraint=eastwest;fontSize=16;miterlimit=7;sketch=1;curveFitting=1;jiggle=2;" vertex="1" parent="M1OJQKpELJWNm4TvlvLG-606">
          <mxGeometry y="281" width="531" height="29" as="geometry" />
        </mxCell>
        <mxCell id="M1OJQKpELJWNm4TvlvLG-624" value="" style="shape=partialRectangle;html=1;whiteSpace=wrap;connectable=0;strokeColor=inherit;overflow=hidden;fillColor=none;top=0;left=0;bottom=0;right=0;pointerEvents=1;fontSize=15;miterlimit=7;sketch=1;curveFitting=1;jiggle=2;" vertex="1" visible="0" parent="M1OJQKpELJWNm4TvlvLG-623">
          <mxGeometry width="531" height="29" as="geometry">
            <mxRectangle width="531" height="29" as="alternateBounds" />
          </mxGeometry>
        </mxCell>
        <mxCell id="M1OJQKpELJWNm4TvlvLG-625" style="shape=tableRow;horizontal=0;startSize=0;swimlaneHead=0;swimlaneBody=0;strokeColor=inherit;top=0;left=0;bottom=0;right=0;collapsible=0;dropTarget=0;fillColor=none;points=[[0,0.5],[1,0.5]];portConstraint=eastwest;fontSize=16;miterlimit=7;sketch=1;curveFitting=1;jiggle=2;" vertex="1" parent="M1OJQKpELJWNm4TvlvLG-606">
          <mxGeometry y="310" width="531" height="27" as="geometry" />
        </mxCell>
        <mxCell id="M1OJQKpELJWNm4TvlvLG-626" value="" style="shape=partialRectangle;html=1;whiteSpace=wrap;connectable=0;strokeColor=inherit;overflow=hidden;fillColor=none;top=0;left=0;bottom=0;right=0;pointerEvents=1;fontSize=15;miterlimit=7;sketch=1;curveFitting=1;jiggle=2;" vertex="1" visible="0" parent="M1OJQKpELJWNm4TvlvLG-625">
          <mxGeometry width="531" height="27" as="geometry">
            <mxRectangle width="531" height="27" as="alternateBounds" />
          </mxGeometry>
        </mxCell>
        <mxCell id="M1OJQKpELJWNm4TvlvLG-627" style="shape=tableRow;horizontal=0;startSize=0;swimlaneHead=0;swimlaneBody=0;strokeColor=inherit;top=0;left=0;bottom=0;right=0;collapsible=0;dropTarget=0;fillColor=none;points=[[0,0.5],[1,0.5]];portConstraint=eastwest;fontSize=16;miterlimit=7;sketch=1;curveFitting=1;jiggle=2;" vertex="1" parent="M1OJQKpELJWNm4TvlvLG-606">
          <mxGeometry y="337" width="531" height="30" as="geometry" />
        </mxCell>
        <mxCell id="M1OJQKpELJWNm4TvlvLG-628" value="" style="shape=partialRectangle;html=1;whiteSpace=wrap;connectable=0;strokeColor=inherit;overflow=hidden;fillColor=none;top=0;left=0;bottom=0;right=0;pointerEvents=1;fontSize=15;miterlimit=7;sketch=1;curveFitting=1;jiggle=2;" vertex="1" visible="0" parent="M1OJQKpELJWNm4TvlvLG-627">
          <mxGeometry width="531" height="30" as="geometry">
            <mxRectangle width="531" height="30" as="alternateBounds" />
          </mxGeometry>
        </mxCell>
        <mxCell id="M1OJQKpELJWNm4TvlvLG-629" style="shape=tableRow;horizontal=0;startSize=0;swimlaneHead=0;swimlaneBody=0;strokeColor=inherit;top=0;left=0;bottom=0;right=0;collapsible=0;dropTarget=0;fillColor=none;points=[[0,0.5],[1,0.5]];portConstraint=eastwest;fontSize=16;miterlimit=7;sketch=1;curveFitting=1;jiggle=2;" vertex="1" parent="M1OJQKpELJWNm4TvlvLG-606">
          <mxGeometry y="367" width="531" height="28" as="geometry" />
        </mxCell>
        <mxCell id="M1OJQKpELJWNm4TvlvLG-630" value="" style="shape=partialRectangle;html=1;whiteSpace=wrap;connectable=0;strokeColor=inherit;overflow=hidden;fillColor=none;top=0;left=0;bottom=0;right=0;pointerEvents=1;fontSize=15;miterlimit=7;sketch=1;curveFitting=1;jiggle=2;" vertex="1" visible="0" parent="M1OJQKpELJWNm4TvlvLG-629">
          <mxGeometry width="531" height="28" as="geometry">
            <mxRectangle width="531" height="28" as="alternateBounds" />
          </mxGeometry>
        </mxCell>
        <mxCell id="M1OJQKpELJWNm4TvlvLG-631" style="shape=tableRow;horizontal=0;startSize=0;swimlaneHead=0;swimlaneBody=0;strokeColor=inherit;top=0;left=0;bottom=0;right=0;collapsible=0;dropTarget=0;fillColor=none;points=[[0,0.5],[1,0.5]];portConstraint=eastwest;fontSize=16;miterlimit=7;sketch=1;curveFitting=1;jiggle=2;" vertex="1" parent="M1OJQKpELJWNm4TvlvLG-606">
          <mxGeometry y="395" width="531" height="29" as="geometry" />
        </mxCell>
        <mxCell id="M1OJQKpELJWNm4TvlvLG-632" value="" style="shape=partialRectangle;html=1;whiteSpace=wrap;connectable=0;strokeColor=inherit;overflow=hidden;fillColor=none;top=0;left=0;bottom=0;right=0;pointerEvents=1;fontSize=15;miterlimit=7;sketch=1;curveFitting=1;jiggle=2;" vertex="1" visible="0" parent="M1OJQKpELJWNm4TvlvLG-631">
          <mxGeometry width="531" height="29" as="geometry">
            <mxRectangle width="531" height="29" as="alternateBounds" />
          </mxGeometry>
        </mxCell>
        <mxCell id="M1OJQKpELJWNm4TvlvLG-633" style="shape=tableRow;horizontal=0;startSize=0;swimlaneHead=0;swimlaneBody=0;strokeColor=inherit;top=0;left=0;bottom=0;right=0;collapsible=0;dropTarget=0;fillColor=none;points=[[0,0.5],[1,0.5]];portConstraint=eastwest;fontSize=16;miterlimit=7;sketch=1;curveFitting=1;jiggle=2;" vertex="1" parent="M1OJQKpELJWNm4TvlvLG-606">
          <mxGeometry y="424" width="531" height="28" as="geometry" />
        </mxCell>
        <mxCell id="M1OJQKpELJWNm4TvlvLG-634" value="" style="shape=partialRectangle;html=1;whiteSpace=wrap;connectable=0;strokeColor=inherit;overflow=hidden;fillColor=none;top=0;left=0;bottom=0;right=0;pointerEvents=1;fontSize=15;miterlimit=7;sketch=1;curveFitting=1;jiggle=2;" vertex="1" visible="0" parent="M1OJQKpELJWNm4TvlvLG-633">
          <mxGeometry width="531" height="28" as="geometry">
            <mxRectangle width="531" height="28" as="alternateBounds" />
          </mxGeometry>
        </mxCell>
        <mxCell id="M1OJQKpELJWNm4TvlvLG-635" style="shape=tableRow;horizontal=0;startSize=0;swimlaneHead=0;swimlaneBody=0;strokeColor=inherit;top=0;left=0;bottom=0;right=0;collapsible=0;dropTarget=0;fillColor=none;points=[[0,0.5],[1,0.5]];portConstraint=eastwest;fontSize=16;miterlimit=7;sketch=1;curveFitting=1;jiggle=2;" vertex="1" parent="M1OJQKpELJWNm4TvlvLG-606">
          <mxGeometry y="452" width="531" height="33" as="geometry" />
        </mxCell>
        <mxCell id="M1OJQKpELJWNm4TvlvLG-636" value="" style="shape=partialRectangle;html=1;whiteSpace=wrap;connectable=0;strokeColor=inherit;overflow=hidden;fillColor=none;top=0;left=0;bottom=0;right=0;pointerEvents=1;fontSize=15;miterlimit=7;sketch=1;curveFitting=1;jiggle=2;" vertex="1" visible="0" parent="M1OJQKpELJWNm4TvlvLG-635">
          <mxGeometry width="531" height="33" as="geometry">
            <mxRectangle width="531" height="33" as="alternateBounds" />
          </mxGeometry>
        </mxCell>
        <mxCell id="M1OJQKpELJWNm4TvlvLG-637" style="shape=tableRow;horizontal=0;startSize=0;swimlaneHead=0;swimlaneBody=0;strokeColor=inherit;top=0;left=0;bottom=0;right=0;collapsible=0;dropTarget=0;fillColor=none;points=[[0,0.5],[1,0.5]];portConstraint=eastwest;fontSize=16;miterlimit=7;sketch=1;curveFitting=1;jiggle=2;" vertex="1" parent="M1OJQKpELJWNm4TvlvLG-606">
          <mxGeometry y="485" width="531" height="30" as="geometry" />
        </mxCell>
        <mxCell id="M1OJQKpELJWNm4TvlvLG-638" value="" style="shape=partialRectangle;html=1;whiteSpace=wrap;connectable=0;strokeColor=inherit;overflow=hidden;fillColor=none;top=0;left=0;bottom=0;right=0;pointerEvents=1;fontSize=15;miterlimit=7;sketch=1;curveFitting=1;jiggle=2;" vertex="1" visible="0" parent="M1OJQKpELJWNm4TvlvLG-637">
          <mxGeometry width="531" height="30" as="geometry">
            <mxRectangle width="531" height="30" as="alternateBounds" />
          </mxGeometry>
        </mxCell>
        <mxCell id="M1OJQKpELJWNm4TvlvLG-639" style="shape=tableRow;horizontal=0;startSize=0;swimlaneHead=0;swimlaneBody=0;strokeColor=inherit;top=0;left=0;bottom=0;right=0;collapsible=0;dropTarget=0;fillColor=none;points=[[0,0.5],[1,0.5]];portConstraint=eastwest;fontSize=16;miterlimit=7;sketch=1;curveFitting=1;jiggle=2;" vertex="1" parent="M1OJQKpELJWNm4TvlvLG-606">
          <mxGeometry y="515" width="531" height="27" as="geometry" />
        </mxCell>
        <mxCell id="M1OJQKpELJWNm4TvlvLG-640" value="" style="shape=partialRectangle;html=1;whiteSpace=wrap;connectable=0;strokeColor=inherit;overflow=hidden;fillColor=none;top=0;left=0;bottom=0;right=0;pointerEvents=1;fontSize=15;miterlimit=7;sketch=1;curveFitting=1;jiggle=2;" vertex="1" visible="0" parent="M1OJQKpELJWNm4TvlvLG-639">
          <mxGeometry width="531" height="27" as="geometry">
            <mxRectangle width="531" height="27" as="alternateBounds" />
          </mxGeometry>
        </mxCell>
        <mxCell id="M1OJQKpELJWNm4TvlvLG-641" style="shape=tableRow;horizontal=0;startSize=0;swimlaneHead=0;swimlaneBody=0;strokeColor=inherit;top=0;left=0;bottom=0;right=0;collapsible=0;dropTarget=0;fillColor=none;points=[[0,0.5],[1,0.5]];portConstraint=eastwest;fontSize=16;miterlimit=7;sketch=1;curveFitting=1;jiggle=2;" vertex="1" parent="M1OJQKpELJWNm4TvlvLG-606">
          <mxGeometry y="542" width="531" height="30" as="geometry" />
        </mxCell>
        <mxCell id="M1OJQKpELJWNm4TvlvLG-642" value="" style="shape=partialRectangle;html=1;whiteSpace=wrap;connectable=0;strokeColor=inherit;overflow=hidden;fillColor=none;top=0;left=0;bottom=0;right=0;pointerEvents=1;fontSize=15;miterlimit=7;sketch=1;curveFitting=1;jiggle=2;" vertex="1" visible="0" parent="M1OJQKpELJWNm4TvlvLG-641">
          <mxGeometry width="531" height="30" as="geometry">
            <mxRectangle width="531" height="30" as="alternateBounds" />
          </mxGeometry>
        </mxCell>
        <mxCell id="M1OJQKpELJWNm4TvlvLG-643" style="shape=tableRow;horizontal=0;startSize=0;swimlaneHead=0;swimlaneBody=0;strokeColor=inherit;top=0;left=0;bottom=0;right=0;collapsible=0;dropTarget=0;fillColor=none;points=[[0,0.5],[1,0.5]];portConstraint=eastwest;fontSize=16;miterlimit=7;sketch=1;curveFitting=1;jiggle=2;" vertex="1" parent="M1OJQKpELJWNm4TvlvLG-606">
          <mxGeometry y="572" width="531" height="29" as="geometry" />
        </mxCell>
        <mxCell id="M1OJQKpELJWNm4TvlvLG-644" value="" style="shape=partialRectangle;html=1;whiteSpace=wrap;connectable=0;strokeColor=inherit;overflow=hidden;fillColor=none;top=0;left=0;bottom=0;right=0;pointerEvents=1;fontSize=15;miterlimit=7;sketch=1;curveFitting=1;jiggle=2;" vertex="1" visible="0" parent="M1OJQKpELJWNm4TvlvLG-643">
          <mxGeometry width="531" height="29" as="geometry">
            <mxRectangle width="531" height="29" as="alternateBounds" />
          </mxGeometry>
        </mxCell>
        <mxCell id="M1OJQKpELJWNm4TvlvLG-645" style="shape=tableRow;horizontal=0;startSize=0;swimlaneHead=0;swimlaneBody=0;strokeColor=inherit;top=0;left=0;bottom=0;right=0;collapsible=0;dropTarget=0;fillColor=none;points=[[0,0.5],[1,0.5]];portConstraint=eastwest;fontSize=16;miterlimit=7;sketch=1;curveFitting=1;jiggle=2;" vertex="1" parent="M1OJQKpELJWNm4TvlvLG-606">
          <mxGeometry y="601" width="531" height="39" as="geometry" />
        </mxCell>
        <mxCell id="M1OJQKpELJWNm4TvlvLG-646" value="" style="shape=partialRectangle;html=1;whiteSpace=wrap;connectable=0;strokeColor=inherit;overflow=hidden;fillColor=none;top=0;left=0;bottom=0;right=0;pointerEvents=1;fontSize=15;miterlimit=7;sketch=1;curveFitting=1;jiggle=2;" vertex="1" visible="0" parent="M1OJQKpELJWNm4TvlvLG-645">
          <mxGeometry width="531" height="39" as="geometry">
            <mxRectangle width="531" height="39" as="alternateBounds" />
          </mxGeometry>
        </mxCell>
        <mxCell id="M1OJQKpELJWNm4TvlvLG-648" value="&lt;h3 data-start=&quot;3115&quot; data-end=&quot;3135&quot;&gt;Tabela &lt;code data-start=&quot;3126&quot; data-end=&quot;3135&quot;&gt;PROJETO&lt;/code&gt;&lt;/h3&gt;&#xa;&lt;div class=&quot;_tableContainer_1rjym_1&quot;&gt;&lt;div tabindex=&quot;-1&quot; class=&quot;_tableWrapper_1rjym_13 group flex w-fit flex-col-reverse&quot;&gt;&lt;table data-start=&quot;3136&quot; data-end=&quot;3494&quot; class=&quot;w-fit min-w-(--thread-content-width)&quot;&gt;&lt;thead data-start=&quot;3136&quot; data-end=&quot;3206&quot;&gt;&lt;tr data-start=&quot;3136&quot; data-end=&quot;3206&quot;&gt;&lt;th data-start=&quot;3136&quot; data-end=&quot;3145&quot; data-col-size=&quot;sm&quot;&gt;CODIGO&lt;/th&gt;&lt;th data-start=&quot;3145&quot; data-end=&quot;3162&quot; data-col-size=&quot;sm&quot;&gt;TIPO&lt;/th&gt;&lt;th data-start=&quot;3162&quot; data-end=&quot;3206&quot; data-col-size=&quot;md&quot;&gt;DESCRICAO&lt;/th&gt;&lt;/tr&gt;&lt;/thead&gt;&lt;tbody data-start=&quot;3278&quot; data-end=&quot;3494&quot;&gt;&lt;tr data-start=&quot;3278&quot; data-end=&quot;3348&quot;&gt;&lt;td data-start=&quot;3278&quot; data-end=&quot;3287&quot; data-col-size=&quot;sm&quot;&gt;001&lt;/td&gt;&lt;td data-start=&quot;3287&quot; data-end=&quot;3304&quot; data-col-size=&quot;sm&quot;&gt;PESQUISA&lt;/td&gt;&lt;td data-start=&quot;3304&quot; data-end=&quot;3348&quot; data-col-size=&quot;md&quot;&gt;LEVANTAMENTO DE REQUISITOS&lt;/td&gt;&lt;/tr&gt;&lt;tr data-start=&quot;3349&quot; data-end=&quot;3423&quot;&gt;&lt;td data-start=&quot;3349&quot; data-end=&quot;3358&quot; data-col-size=&quot;sm&quot;&gt;002&lt;/td&gt;&lt;td data-start=&quot;3358&quot; data-end=&quot;3375&quot; data-col-size=&quot;sm&quot;&gt;DESENVOLVIMENTO&lt;/td&gt;&lt;td data-start=&quot;3375&quot; data-end=&quot;3423&quot; data-col-size=&quot;md&quot;&gt;DESENVOLVIMENTO DE APP PARA ATUAÇÃO EM CAMPO&lt;/td&gt;&lt;/tr&gt;&lt;tr data-start=&quot;3424&quot; data-end=&quot;3494&quot;&gt;&lt;td data-start=&quot;3424&quot; data-end=&quot;3433&quot; data-col-size=&quot;sm&quot;&gt;003&lt;/td&gt;&lt;td data-start=&quot;3433&quot; data-end=&quot;3450&quot; data-col-size=&quot;sm&quot;&gt;PESQUISA&lt;/td&gt;&lt;td data-start=&quot;3450&quot; data-end=&quot;3494&quot; data-col-size=&quot;md&quot;&gt;LEVANTAMENTO DE REQUISITOS&lt;/td&gt;&lt;/tr&gt;&lt;/tbody&gt;&lt;/table&gt;&lt;/div&gt;&lt;/div&gt;&#xa;&lt;h3 data-start=&quot;3496&quot; data-end=&quot;3518&quot;&gt;Tabela &lt;code data-start=&quot;3507&quot; data-end=&quot;3518&quot;&gt;CATEGORIA&lt;/code&gt;&lt;/h3&gt;&#xa;&lt;div class=&quot;_tableContainer_1rjym_1&quot;&gt;&lt;div tabindex=&quot;-1&quot; class=&quot;_tableWrapper_1rjym_13 group flex w-fit flex-col-reverse&quot;&gt;&lt;table data-start=&quot;3519&quot; data-end=&quot;3688&quot; class=&quot;w-fit min-w-(--thread-content-width)&quot;&gt;&lt;thead data-start=&quot;3519&quot; data-end=&quot;3552&quot;&gt;&lt;tr data-start=&quot;3519&quot; data-end=&quot;3552&quot;&gt;&lt;th data-start=&quot;3519&quot; data-end=&quot;3541&quot; data-col-size=&quot;sm&quot;&gt;CAT_EMPREGADO&lt;/th&gt;&lt;th data-start=&quot;3541&quot; data-end=&quot;3552&quot; data-col-size=&quot;sm&quot;&gt;SALARIO&lt;/th&gt;&lt;/tr&gt;&lt;/thead&gt;&lt;tbody data-start=&quot;3587&quot; data-end=&quot;3688&quot;&gt;&lt;tr data-start=&quot;3587&quot; data-end=&quot;3620&quot;&gt;&lt;td data-start=&quot;3587&quot; data-end=&quot;3609&quot; data-col-size=&quot;sm&quot;&gt;ANALISTA JÚNIOR&lt;/td&gt;&lt;td data-start=&quot;3609&quot; data-end=&quot;3620&quot; data-col-size=&quot;sm&quot;&gt;3500&lt;/td&gt;&lt;/tr&gt;&lt;tr data-start=&quot;3621&quot; data-end=&quot;3654&quot;&gt;&lt;td data-start=&quot;3621&quot; data-end=&quot;3643&quot; data-col-size=&quot;sm&quot;&gt;DESENVOLVEDOR JÚNIOR&lt;/td&gt;&lt;td data-start=&quot;3643&quot; data-end=&quot;3654&quot; data-col-size=&quot;sm&quot;&gt;3750&lt;/td&gt;&lt;/tr&gt;&lt;tr data-start=&quot;3655&quot; data-end=&quot;3688&quot;&gt;&lt;td data-start=&quot;3655&quot; data-end=&quot;3677&quot; data-col-size=&quot;sm&quot;&gt;ANALISTA SÊNIOR&lt;/td&gt;&lt;td data-start=&quot;3677&quot; data-end=&quot;3688&quot; data-col-size=&quot;sm&quot;&gt;8900&lt;/td&gt;&lt;/tr&gt;&lt;/tbody&gt;&lt;/table&gt;&lt;/div&gt;&lt;/div&gt;&#xa;&lt;h3 data-start=&quot;3690&quot; data-end=&quot;3712&quot;&gt;Tabela &lt;code data-start=&quot;3701&quot; data-end=&quot;3712&quot;&gt;EMPREGADO&lt;/code&gt;&lt;/h3&gt;&#xa;&lt;div class=&quot;_tableContainer_1rjym_1&quot;&gt;&lt;div tabindex=&quot;-1&quot; class=&quot;_tableWrapper_1rjym_13 group flex w-fit flex-col-reverse&quot;&gt;&lt;table data-start=&quot;3713&quot; data-end=&quot;4067&quot; class=&quot;w-fit min-w-(--thread-content-width)&quot;&gt;&lt;thead data-start=&quot;3713&quot; data-end=&quot;3783&quot;&gt;&lt;tr data-start=&quot;3713&quot; data-end=&quot;3783&quot;&gt;&lt;th data-start=&quot;3713&quot; data-end=&quot;3729&quot; data-col-size=&quot;sm&quot;&gt;COD_EMPREGADO&lt;/th&gt;&lt;th data-start=&quot;3729&quot; data-end=&quot;3741&quot; data-col-size=&quot;sm&quot;&gt;NOME_EMP&lt;/th&gt;&lt;th data-start=&quot;3741&quot; data-end=&quot;3763&quot; data-col-size=&quot;sm&quot;&gt;CAT_EMPREGADO&lt;/th&gt;&lt;th data-start=&quot;3763&quot; data-end=&quot;3783&quot; data-col-size=&quot;sm&quot;&gt;DATA_CONTRATACAO&lt;/th&gt;&lt;/tr&gt;&lt;/thead&gt;&lt;tbody data-start=&quot;3855&quot; data-end=&quot;4067&quot;&gt;&lt;tr data-start=&quot;3855&quot; data-end=&quot;3925&quot;&gt;&lt;td data-start=&quot;3855&quot; data-end=&quot;3871&quot; data-col-size=&quot;sm&quot;&gt;1002&lt;/td&gt;&lt;td data-start=&quot;3871&quot; data-end=&quot;3883&quot; data-col-size=&quot;sm&quot;&gt;FULANO&lt;/td&gt;&lt;td data-start=&quot;3883&quot; data-end=&quot;3905&quot; data-col-size=&quot;sm&quot;&gt;ANALISTA JÚNIOR&lt;/td&gt;&lt;td data-start=&quot;3905&quot; data-end=&quot;3925&quot; data-col-size=&quot;sm&quot;&gt;01/02/2018&lt;/td&gt;&lt;/tr&gt;&lt;tr data-start=&quot;3926&quot; data-end=&quot;3996&quot;&gt;&lt;td data-start=&quot;3926&quot; data-end=&quot;3942&quot; data-col-size=&quot;sm&quot;&gt;2156&lt;/td&gt;&lt;td data-start=&quot;3942&quot; data-end=&quot;3954&quot; data-col-size=&quot;sm&quot;&gt;CICLANO&lt;/td&gt;&lt;td data-start=&quot;3954&quot; data-end=&quot;3976&quot; data-col-size=&quot;sm&quot;&gt;DESENVOLVEDOR JÚNIOR&lt;/td&gt;&lt;td data-start=&quot;3976&quot; data-end=&quot;3996&quot; data-col-size=&quot;sm&quot;&gt;01/03/2018&lt;/td&gt;&lt;/tr&gt;&lt;tr data-start=&quot;3997&quot; data-end=&quot;4067&quot;&gt;&lt;td data-start=&quot;3997&quot; data-end=&quot;4013&quot; data-col-size=&quot;sm&quot;&gt;2668&lt;/td&gt;&lt;td data-start=&quot;4013&quot; data-end=&quot;4025&quot; data-col-size=&quot;sm&quot;&gt;BELTRANO&lt;/td&gt;&lt;td data-start=&quot;4025&quot; data-end=&quot;4047&quot; data-col-size=&quot;sm&quot;&gt;ANALISTA SÊNIOR&lt;/td&gt;&lt;td data-start=&quot;4047&quot; data-end=&quot;4067&quot; data-col-size=&quot;sm&quot;&gt;01/04/2014&lt;/td&gt;&lt;/tr&gt;&lt;/tbody&gt;&lt;/table&gt;&lt;/div&gt;&lt;/div&gt;&#xa;&lt;h3 data-start=&quot;4069&quot; data-end=&quot;4099&quot;&gt;Tabela &lt;code data-start=&quot;4080&quot; data-end=&quot;4099&quot;&gt;PROJETO_EMPREGADO&lt;/code&gt;&lt;/h3&gt;&#xa;&lt;div class=&quot;_tableContainer_1rjym_1&quot;&gt;&lt;div tabindex=&quot;-1&quot; class=&quot;_tableWrapper_1rjym_13 group flex w-fit flex-col-reverse&quot;&gt;&lt;table data-start=&quot;4100&quot; data-end=&quot;4234&quot; class=&quot;w-fit min-w-(--thread-content-width)&quot;&gt;&lt;thead data-start=&quot;4100&quot; data-end=&quot;4126&quot;&gt;&lt;tr data-start=&quot;4100&quot; data-end=&quot;4126&quot;&gt;&lt;th data-start=&quot;4100&quot; data-end=&quot;4109&quot; data-col-size=&quot;sm&quot;&gt;CODIGO&lt;/th&gt;&lt;th data-start=&quot;4109&quot; data-end=&quot;4126&quot; data-col-size=&quot;sm&quot;&gt;COD_EMPREGADO&lt;/th&gt;&lt;/tr&gt;&lt;/thead&gt;&lt;tbody data-start=&quot;4154&quot; data-end=&quot;4234&quot;&gt;&lt;tr data-start=&quot;4154&quot; data-end=&quot;4180&quot;&gt;&lt;td data-start=&quot;4154&quot; data-end=&quot;4163&quot; data-col-size=&quot;sm&quot;&gt;001&lt;/td&gt;&lt;td data-start=&quot;4163&quot; data-end=&quot;4180&quot; data-col-size=&quot;sm&quot;&gt;1002&lt;/td&gt;&lt;/tr&gt;&lt;tr data-start=&quot;4181&quot; data-end=&quot;4207&quot;&gt;&lt;td data-start=&quot;4181&quot; data-end=&quot;4190&quot; data-col-size=&quot;sm&quot;&gt;002&lt;/td&gt;&lt;td data-start=&quot;4190&quot; data-end=&quot;4207&quot; data-col-size=&quot;sm&quot;&gt;2156&lt;/td&gt;&lt;/tr&gt;&lt;tr data-start=&quot;4208&quot; data-end=&quot;4234&quot;&gt;&lt;td data-start=&quot;4208&quot; data-end=&quot;4217&quot; data-col-size=&quot;sm&quot;&gt;003&lt;/td&gt;&lt;td data-start=&quot;4217&quot; data-end=&quot;4234&quot; data-col-size=&quot;sm&quot;&gt;2668&lt;/td&gt;&lt;/tr&gt;&lt;/tbody&gt;&lt;/table&gt;&lt;/div&gt;&lt;/div&gt;" style="text;whiteSpace=wrap;html=1;" vertex="1" parent="1">
          <mxGeometry x="670" y="570" width="510" height="520" as="geometry" />
        </mxCell>
      </root>
    </mxGraphModel>
  </diagram>
</mxfile>
